<?xml version="1.0" encoding="utf-8"?>
<svg xmlns="http://www.w3.org/2000/svg" viewBox="0 0 500 500">
  <g>
    <g transform="matrix(0.515751, 0, 0, 0.515751, -129.893753, 32.872883)" style="">
      <ellipse style="stroke: rgb(0, 0, 0); fill: rgb(255, 253, 253);" cx="679.935" cy="323.98" rx="220.645" ry="223.375"/>
      <path d="M 691.07 719.27 C688.63,721.32 686.13,723.00 685.51,723.00 C681.25,723.00 615.18,659.14 578.94,619.99 C527.61,564.53 479.71,507.27 461.84,480.00 C428.73,429.49 414.34,388.74 410.90,335.75 C406.77,272.06 425.56,206.83 462.66,156.10 C509.53,92.02 577.37,52.28 655.00,43.44 C673.28,41.36 702.28,41.58 720.50,43.95 C737.61,46.16 742.17,47.05 757.50,51.15 C838.82,72.91 906.97,133.05 939.74,211.99 C956.40,252.10 964.05,301.38 959.96,342.14 C953.46,406.89 931.52,455.40 880.08,518.76 C848.77,557.33 827.20,582.16 793.02,619.00 C762.55,651.84 711.30,702.24 691.07,719.27 ZM 676.00 713.38 C680.12,716.95 684.28,719.90 685.24,719.93 C686.82,719.99 690.54,717.10 702.80,706.29 C707.97,701.73 724.88,685.75 728.50,682.01 C729.05,681.44 735.35,675.20 742.50,668.14 C753.52,657.27 775.14,635.18 794.02,615.50 C796.66,612.75 800.46,608.47 802.47,606.00 C804.48,603.53 811.16,596.16 817.31,589.64 C823.47,583.11 829.72,575.83 831.21,573.46 C832.69,571.09 834.54,568.78 835.32,568.32 C836.09,567.87 838.61,565.25 840.91,562.50 C847.74,554.33 852.21,549.21 857.34,543.70 C861.76,538.95 865.71,533.99 881.44,513.50 C884.39,509.65 887.89,505.38 889.21,504.00 C890.53,502.62 893.16,499.33 895.05,496.67 C896.95,494.01 899.74,490.35 901.25,488.54 C902.76,486.72 904.00,484.80 904.00,484.27 C904.00,483.74 904.87,482.52 905.93,481.56 C906.99,480.60 908.59,478.40 909.48,476.66 C910.37,474.92 912.43,471.48 914.05,469.00 C915.67,466.52 917.64,463.12 918.43,461.43 C919.23,459.75 921.48,455.93 923.44,452.96 C925.40,449.98 927.00,447.06 927.00,446.46 C927.00,445.86 928.80,441.83 931.00,437.50 C933.20,433.17 935.00,429.10 935.00,428.45 C935.00,427.80 935.90,426.13 937.00,424.73 C941.59,418.90 952.78,379.52 956.39,356.50 C960.46,330.51 959.09,288.54 953.36,264.00 C952.53,260.42 951.38,255.48 950.81,253.00 C949.15,245.82 945.99,234.68 944.99,232.50 C944.48,231.40 943.12,227.57 941.95,224.00 C940.78,220.43 938.97,216.10 937.91,214.38 C936.86,212.67 936.00,210.59 936.00,209.77 C936.00,208.95 934.71,205.63 933.13,202.39 C931.54,199.15 929.02,193.80 927.51,190.50 C926.00,187.20 923.95,183.60 922.96,182.50 C921.97,181.40 919.61,177.57 917.71,174.00 C914.04,167.05 909.12,159.37 905.24,154.50 C903.92,152.85 901.86,150.23 900.67,148.68 C897.21,144.20 878.78,123.87 875.62,121.06 C874.04,119.65 869.54,115.46 865.62,111.75 C861.71,108.04 858.02,105.01 857.43,105.00 C856.84,105.00 855.45,103.99 854.34,102.75 C852.58,100.78 847.00,96.61 834.00,87.55 C832.08,86.20 828.47,84.03 826.00,82.71 C823.53,81.40 817.45,78.00 812.50,75.15 C807.55,72.31 801.25,69.13 798.50,68.10 C795.75,67.06 791.03,65.08 788.00,63.71 C784.97,62.34 780.47,60.52 778.00,59.69 C775.53,58.85 771.47,57.23 769.00,56.10 C766.53,54.97 763.38,54.04 762.00,54.03 C760.62,54.02 757.47,53.38 755.00,52.61 C747.29,50.20 736.75,47.77 730.50,46.95 C727.20,46.52 720.90,45.65 716.50,45.03 C701.55,42.93 654.48,44.21 645.01,46.98 C643.09,47.54 639.61,48.00 637.28,48.00 C634.95,48.00 631.34,48.66 629.27,49.46 C627.20,50.26 623.25,51.33 620.50,51.84 C612.88,53.26 602.81,56.07 599.80,57.61 C598.31,58.38 595.99,59.00 594.64,59.00 C593.29,59.00 587.75,61.07 582.34,63.59 C559.33,74.33 549.38,79.31 547.50,81.03 C546.40,82.04 542.80,84.27 539.50,86.00 C536.20,87.72 532.38,90.20 531.00,91.51 C529.62,92.81 527.08,94.92 525.33,96.19 C507.51,109.21 483.80,131.10 475.69,142.03 C473.39,145.14 469.92,149.83 468.00,152.47 C466.08,155.10 463.06,159.11 461.30,161.38 C457.84,165.85 452.25,174.91 450.37,179.13 C449.73,180.58 448.69,182.07 448.07,182.46 C446.73,183.28 434.00,209.16 434.00,211.04 C434.00,211.76 432.69,215.30 431.09,218.92 C428.29,225.25 425.80,232.17 424.06,238.50 C419.98,253.31 418.89,257.91 417.16,267.50 C413.56,287.44 412.50,299.26 412.54,319.00 C412.60,343.52 416.09,371.46 421.11,387.57 C422.15,390.91 423.00,394.39 423.00,395.30 C423.00,398.47 438.82,437.41 441.57,441.00 C442.20,441.83 443.17,443.85 443.72,445.50 C444.27,447.15 446.14,450.73 447.86,453.45 C449.59,456.17 451.00,458.82 451.00,459.34 C451.00,459.87 452.51,462.14 454.35,464.40 C456.19,466.65 458.84,470.64 460.22,473.25 C462.58,477.69 464.53,480.47 476.76,496.84 C479.37,500.32 483.08,505.37 485.00,508.05 C489.67,514.55 497.63,524.28 502.25,529.14 C504.31,531.30 506.01,533.40 506.03,533.79 C506.05,534.18 508.54,537.20 511.56,540.49 C514.59,543.79 518.74,548.69 520.78,551.38 C522.83,554.08 525.91,557.68 527.63,559.39 C529.36,561.10 533.46,565.88 536.76,570.00 C540.06,574.12 544.61,579.40 546.88,581.71 C549.14,584.03 551.00,586.25 551.00,586.65 C551.00,587.05 553.14,589.44 555.75,591.95 C562.60,598.55 579.48,616.90 582.48,621.00 C585.25,624.79 592.87,632.00 594.10,632.00 C594.52,632.00 595.17,632.97 595.55,634.15 C596.32,636.59 648.58,689.18 654.00,692.98 C655.92,694.33 659.97,698.01 663.00,701.16 C666.03,704.32 671.88,709.82 676.00,713.38 ZM 720.00 515.99 C706.36,517.98 681.77,519.29 674.00,518.44 C649.36,515.76 638.63,513.90 631.16,511.01 C628.23,509.87 623.50,508.45 620.66,507.85 C617.82,507.24 613.41,505.70 610.85,504.41 C608.29,503.12 604.01,501.23 601.33,500.22 C598.64,499.20 593.31,496.32 589.47,493.82 C585.64,491.32 581.53,488.97 580.34,488.60 C577.66,487.76 566.50,479.35 562.10,474.87 C561.22,473.97 558.70,472.03 556.50,470.57 C552.20,467.71 535.00,451.13 535.00,449.84 C535.00,449.41 532.12,445.76 528.59,441.71 C525.06,437.67 521.46,432.82 520.58,430.93 C519.70,429.04 517.20,424.58 515.01,421.00 C512.83,417.42 509.49,411.35 507.60,407.50 C503.21,398.59 494.00,374.87 494.00,372.47 C494.00,371.46 493.12,367.68 492.05,364.07 C489.38,355.06 488.06,345.95 487.09,329.71 C486.31,316.82 486.86,306.73 489.49,285.50 C490.55,276.96 494.96,260.28 497.96,253.50 C498.93,251.30 500.52,247.25 501.49,244.50 C503.98,237.41 512.88,219.34 514.58,217.94 C515.36,217.29 516.00,216.20 516.00,215.52 C516.00,214.83 517.35,212.58 519.00,210.50 C520.65,208.42 522.00,206.36 522.00,205.91 C522.00,205.47 523.69,202.76 525.75,199.91 C532.63,190.37 569.24,155.00 572.22,155.00 C572.82,155.00 574.70,153.95 576.41,152.67 C581.04,149.18 591.92,143.00 593.43,143.00 C594.16,143.00 595.28,142.37 595.92,141.60 C596.56,140.82 603.03,137.88 610.29,135.06 C617.56,132.23 624.98,129.27 626.78,128.46 C628.59,127.66 631.15,127.00 632.47,127.00 C633.79,127.00 636.14,126.51 637.68,125.91 C648.47,121.76 683.97,118.41 699.50,120.09 C717.38,122.03 731.41,124.47 733.50,126.00 C734.05,126.40 736.30,126.96 738.50,127.25 C742.04,127.70 756.21,132.52 766.00,136.60 C773.28,139.64 788.38,148.15 794.59,152.72 C796.30,153.98 798.17,155.00 798.76,155.00 C799.35,155.00 801.64,156.74 803.85,158.86 C806.07,160.98 810.29,164.33 813.25,166.29 C819.59,170.50 848.16,201.79 849.20,205.66 C849.58,207.09 850.73,209.22 851.76,210.38 C852.78,211.55 854.15,213.62 854.80,215.00 C855.45,216.38 856.55,218.39 857.24,219.48 C862.94,228.42 865.17,232.62 865.68,235.34 C866.01,237.08 866.61,238.95 867.02,239.50 C867.43,240.05 868.97,243.43 870.44,247.00 C880.10,270.42 884.02,291.93 883.97,321.24 C883.93,344.32 882.39,354.83 876.03,375.50 C874.85,379.35 873.51,384.08 873.06,386.00 C872.02,390.47 864.47,407.28 861.16,412.50 C859.76,414.70 857.29,418.98 855.67,422.00 C854.06,425.02 851.89,428.57 850.87,429.88 C849.84,431.20 849.00,432.80 849.00,433.44 C849.00,434.08 847.40,436.15 845.45,438.04 C843.50,439.94 840.85,443.29 839.55,445.49 C838.26,447.70 832.42,454.00 826.59,459.50 C809.66,475.46 803.44,480.34 789.81,488.39 C784.69,491.41 779.38,494.71 778.00,495.72 C776.62,496.73 773.25,498.53 770.50,499.71 C767.75,500.90 763.00,502.95 759.95,504.28 C756.90,505.61 751.95,507.28 748.95,507.99 C745.95,508.70 741.47,510.32 739.00,511.58 C735.96,513.13 729.81,514.56 720.00,515.99 ZM 663.15 515.49 C676.89,517.24 704.59,516.76 716.81,514.57 C743.04,509.85 766.59,500.85 788.50,487.17 C838.74,455.80 872.33,404.26 880.45,346.07 C882.23,333.27 882.50,306.87 880.96,295.32 C877.80,271.70 870.01,247.15 859.31,227.16 C854.61,218.38 843.78,201.77 838.65,195.50 C821.50,174.51 797.12,154.73 773.92,142.99 C717.33,114.34 649.64,115.16 593.00,145.18 C538.51,174.06 498.76,231.35 490.45,293.00 C486.93,319.15 489.63,352.50 497.17,376.00 C507.76,409.00 521.83,432.79 544.40,455.84 C578.22,490.38 616.31,509.51 663.15,515.49 ZM 807.57 454.86 C806.07,456.36 796.26,456.51 693.44,456.64 C590.43,456.78 580.79,456.65 578.97,455.14 C577.04,453.54 576.98,452.01 576.74,397.50 L 576.50 341.50 L 571.16 340.85 C567.25,340.37 565.04,339.45 562.93,337.43 C559.55,334.20 557.56,328.90 558.42,325.47 C559.47,321.29 564.70,316.41 571.22,313.52 C577.07,310.93 581.30,308.98 598.00,301.22 C601.58,299.56 611.25,295.18 619.50,291.48 C627.75,287.78 647.17,278.96 662.66,271.88 C678.15,264.79 691.83,259.00 693.06,259.00 C694.28,259.00 699.84,261.08 705.39,263.63 C727.24,273.63 777.95,297.02 786.00,300.80 C823.72,318.50 822.92,317.95 823.74,326.81 C824.35,333.33 821.22,337.94 814.78,340.00 C811.45,341.07 809.93,342.15 809.53,343.73 C809.22,344.96 809.02,370.10 809.09,399.59 C809.20,448.06 809.05,453.38 807.57,454.86 ZM 615.09 454.24 C663.33,454.63 801.17,454.10 803.68,453.51 C804.88,453.23 806.20,451.98 806.61,450.75 C807.02,449.51 807.29,425.55 807.21,397.50 C807.13,369.45 807.31,345.25 807.61,343.72 C808.03,341.64 809.40,340.32 813.07,338.46 C817.99,335.97 822.00,330.49 822.00,326.27 C822.00,323.53 816.51,317.44 812.79,316.04 C808.87,314.57 793.54,307.42 790.00,305.42 C785.60,302.93 779.77,300.20 769.00,295.60 C763.22,293.13 753.55,288.67 747.50,285.70 C741.45,282.72 733.58,279.05 730.00,277.55 C726.42,276.05 717.33,271.87 709.79,268.27 C692.53,260.03 692.15,260.05 672.57,269.81 C664.83,273.68 654.67,278.40 650.00,280.31 C645.33,282.23 637.64,285.75 632.92,288.15 C623.01,293.18 618.97,295.00 617.70,295.00 C616.63,295.00 613.26,296.50 598.00,303.76 C581.31,311.71 573.07,315.52 568.19,317.56 C557.73,321.93 559.66,336.80 570.91,338.60 C573.14,338.96 575.68,339.78 576.56,340.42 C579.40,342.50 580.26,356.09 579.34,384.42 C578.47,411.26 578.51,420.02 579.59,440.22 C579.98,447.56 580.67,452.31 581.44,452.95 C582.21,453.59 594.93,454.07 615.09,454.24 ZM 581.50 330.53 C575.31,334.03 571.48,334.39 568.25,331.77 C565.40,329.46 568.04,322.00 571.71,322.00 C572.28,322.00 573.28,321.37 573.92,320.60 C574.56,319.83 576.30,318.89 577.79,318.52 C579.28,318.15 581.40,317.04 582.50,316.04 C583.60,315.04 585.62,313.91 587.00,313.51 C592.06,312.06 618.09,300.35 628.14,295.00 C630.14,293.94 635.31,291.66 639.63,289.95 C643.95,288.23 648.61,286.22 649.99,285.48 C654.22,283.21 667.03,277.45 676.50,273.55 C681.45,271.52 686.69,269.21 688.15,268.43 C692.13,266.29 695.08,266.66 703.16,270.34 C707.20,272.17 712.53,274.53 715.00,275.57 C717.47,276.62 721.03,278.49 722.89,279.74 C724.75,280.98 726.70,282.00 727.22,282.00 C727.74,282.00 731.80,283.80 736.24,286.00 C740.68,288.20 744.97,290.00 745.77,290.00 C746.56,290.00 750.20,291.53 753.86,293.40 C771.21,302.27 799.43,315.00 801.75,315.00 C802.30,315.00 803.33,315.69 804.04,316.54 C804.74,317.39 807.66,319.16 810.53,320.47 C814.41,322.24 815.92,323.55 816.42,325.53 C817.21,328.69 815.11,332.48 812.14,333.25 C810.07,333.79 788.91,325.26 779.00,319.89 C769.59,314.79 754.83,308.00 753.13,307.99 C752.23,307.99 750.15,307.07 748.50,305.94 C743.62,302.62 736.70,299.23 714.50,289.31 L 693.50 279.92 L 685.50 283.55 C681.10,285.54 675.23,288.23 672.46,289.52 C669.69,290.80 666.09,292.17 664.46,292.56 C662.83,292.95 658.97,294.78 655.87,296.63 C652.77,298.48 649.92,300.00 649.52,300.00 C649.13,300.00 645.59,301.56 641.65,303.47 C633.04,307.66 621.92,312.00 619.82,312.00 C618.99,312.00 617.22,312.94 615.90,314.10 C613.19,316.47 595.58,325.07 589.50,327.00 C587.30,327.70 583.70,329.29 581.50,330.53 ZM 712.71 447.71 C711.14,449.29 708.91,449.50 693.92,449.50 C678.00,449.50 676.73,449.36 674.20,447.35 L 671.50 445.19 L 671.26 418.22 C671.03,392.67 671.12,391.11 673.00,388.73 L 674.97 386.22 L 692.24 386.50 C701.73,386.65 710.25,387.08 711.16,387.46 C714.46,388.83 714.92,393.03 714.71,419.71 C714.52,443.39 714.33,446.10 712.71,447.71 ZM 771.00 268.45 C766.15,270.95 761.33,273.00 760.29,273.00 C755.84,273.00 755.03,269.21 757.50,260.00 C760.15,250.12 759.83,249.05 752.00,241.71 C744.93,235.08 743.32,231.58 746.25,229.25 C746.94,228.70 751.26,227.72 755.85,227.06 C760.44,226.40 764.85,225.61 765.65,225.30 C766.45,225.00 769.31,220.36 772.00,215.00 C779.18,200.69 781.33,200.74 787.94,215.36 C791.06,222.28 792.80,224.97 794.36,225.34 C795.54,225.62 800.02,226.40 804.33,227.07 C817.53,229.14 818.26,232.25 807.88,242.19 C801.69,248.11 800.82,249.37 801.28,251.75 C805.79,275.10 804.80,276.43 788.89,268.45 L 779.82 263.89 ZM 597.02 268.49 C582.36,275.85 581.05,274.97 583.65,259.56 L 585.44 248.99 L 578.22 241.72 C567.82,231.25 568.56,228.92 582.88,226.96 C587.78,226.29 592.25,225.46 592.80,225.12 C593.35,224.78 595.91,220.13 598.49,214.79 C603.02,205.42 605.40,202.89 608.12,204.57 C608.75,204.96 611.25,209.49 613.69,214.64 C616.13,219.79 618.89,224.38 619.81,224.86 C620.74,225.33 625.10,226.28 629.50,226.96 C639.50,228.53 641.00,229.30 641.00,232.94 C641.00,235.22 639.52,237.18 633.87,242.42 L 626.73 249.02 L 628.37 257.26 C630.31,267.07 630.41,270.19 628.80,271.80 C626.81,273.79 624.37,273.21 614.98,268.49 L 606.00 263.98 ZM 684.17 244.25 C679.28,246.86 674.57,249.00 673.71,249.00 C671.06,249.00 668.77,245.91 669.32,243.09 C669.59,241.66 670.40,237.00 671.11,232.73 L 672.40 224.95 L 665.70 218.20 C660.88,213.34 659.00,210.72 659.00,208.85 C659.00,205.21 660.56,204.26 668.54,203.04 C681.34,201.07 680.25,201.81 685.02,191.85 C689.61,182.26 692.52,179.52 695.49,181.99 C696.34,182.69 698.77,186.99 700.91,191.54 C703.04,196.09 705.62,200.26 706.64,200.80 C707.66,201.35 712.10,202.33 716.50,202.99 C724.49,204.19 728.00,205.97 728.00,208.83 C728.00,209.66 724.85,213.60 721.00,217.57 C717.15,221.54 714.01,225.40 714.02,226.14 C714.03,226.89 714.70,230.65 715.52,234.50 C717.31,242.98 717.38,246.22 715.80,247.80 C713.75,249.85 711.09,249.17 701.93,244.25 L 693.08 239.50 ZM 663.06 448.72 C661.90,449.62 651.98,449.94 624.29,449.97 L 587.07 450.00 L 585.80 447.75 C584.94,446.23 584.56,441.48 584.62,433.17 C584.71,422.51 584.99,420.48 586.72,418.17 L 588.71 415.50 L 618.61 414.96 C635.05,414.67 648.61,414.33 648.75,414.21 C648.89,414.10 649.00,413.33 649.00,412.52 C649.00,410.76 646.15,410.03 640.00,410.20 C637.53,410.27 624.80,410.21 611.73,410.07 C592.31,409.87 587.69,409.55 586.48,408.34 C585.28,407.14 584.97,403.00 584.82,386.68 C584.55,356.17 585.01,339.81 586.23,336.64 C587.16,334.24 589.96,332.51 603.67,325.89 C612.65,321.55 620.25,318.00 620.55,318.00 C621.51,318.00 629.96,314.11 645.50,306.50 C653.75,302.46 663.42,298.13 667.00,296.89 C670.58,295.64 674.85,293.66 676.50,292.48 C680.58,289.56 689.66,286.00 693.01,286.00 C695.85,286.00 706.36,290.31 709.00,292.56 C709.83,293.26 713.98,295.22 718.24,296.90 C722.50,298.59 726.77,300.38 727.74,300.87 C734.86,304.49 761.99,316.98 764.00,317.56 C765.38,317.96 772.35,321.17 779.50,324.70 C786.65,328.22 794.06,331.87 795.98,332.80 C802.00,335.74 802.04,336.03 801.76,373.15 C801.53,403.29 801.32,406.99 799.79,408.68 C798.18,410.45 796.11,410.59 767.79,410.73 C741.59,410.87 737.46,411.10 737.18,412.41 C736.71,414.67 738.89,414.87 769.00,415.33 C784.12,415.57 797.25,416.07 798.16,416.45 C800.58,417.46 801.77,421.46 802.36,430.50 C802.97,439.76 801.89,447.82 799.89,449.08 C797.78,450.42 727.41,450.15 724.44,448.79 C723.10,448.18 722.00,447.41 722.00,447.09 C722.00,446.77 739.55,446.62 761.00,446.77 L 800.00 447.05 L 800.00 434.10 C800.00,426.99 799.73,420.45 799.39,419.58 C798.86,418.19 795.14,418.00 767.83,418.00 C748.40,418.00 736.15,417.61 734.93,416.96 C732.32,415.57 732.32,410.43 734.93,409.04 C736.15,408.38 748.59,408.00 768.45,408.00 L 800.03 408.00 L 799.76 372.43 L 799.50 336.87 L 780.00 327.91 C769.28,322.98 757.35,317.43 753.50,315.59 C726.74,302.78 694.17,288.00 692.70,288.00 C691.73,288.00 688.37,289.30 685.22,290.88 C682.07,292.47 669.38,298.37 657.00,304.00 C644.62,309.63 631.12,315.79 627.00,317.70 C622.88,319.60 618.15,321.77 616.50,322.53 C588.22,335.50 587.51,335.89 587.00,338.72 C586.72,340.25 586.62,356.46 586.78,374.75 L 587.05 408.00 L 618.96 408.00 C646.62,408.00 651.07,408.21 652.43,409.57 C654.44,411.58 654.44,414.42 652.43,416.43 C651.07,417.79 646.62,418.00 618.93,418.00 L 587.00 418.00 L 587.00 447.00 L 664.00 447.00 L 664.18 425.75 C664.28,414.06 664.24,399.77 664.10,394.00 C664.07,392.91 664.03,391.91 664.00,390.98 C663.84,386.53 663.74,383.80 665.02,382.14 C667.07,379.50 672.62,379.58 687.00,379.78 C688.89,379.81 690.93,379.84 693.14,379.86 C709.46,380.05 719.97,380.56 720.75,381.21 C721.71,382.00 721.99,389.69 721.94,413.87 C721.89,436.14 721.58,444.76 720.87,443.00 C720.28,441.54 719.85,428.98 719.83,412.80 C719.81,393.49 719.45,384.62 718.64,383.52 C716.91,381.16 670.85,380.72 668.52,383.05 C667.22,384.36 666.92,389.13 666.62,414.05 C666.42,430.25 665.89,444.40 665.44,445.50 C664.99,446.60 663.92,448.05 663.06,448.72 ZM 674.00 388.96 L 674.00 447.04 L 693.25 446.77 L 712.50 446.50 L 712.50 389.50 L 693.25 389.23 ZM 569.11 330.63 C570.78,332.65 573.58,332.03 583.50,327.47 C587.90,325.45 596.67,321.41 603.00,318.50 C609.33,315.58 622.60,309.50 632.50,304.97 C642.40,300.45 653.88,295.18 658.00,293.26 C685.91,280.26 691.13,278.00 693.13,278.00 C695.27,278.00 704.01,281.88 732.00,295.24 C738.88,298.52 747.88,302.69 752.00,304.50 C756.12,306.31 770.52,313.01 784.00,319.40 C797.47,325.78 809.45,331.00 810.62,331.00 C813.36,331.00 815.33,328.62 814.57,326.23 C814.50,326.01 814.46,325.81 814.39,325.63 C813.80,324.06 811.58,323.10 778.50,307.80 C763.10,300.68 748.70,294.01 746.50,292.98 C713.10,277.37 694.40,269.00 692.91,269.00 C691.89,269.00 689.36,269.87 687.28,270.92 C683.64,272.78 653.89,286.35 603.50,309.15 C590.30,315.12 577.03,321.24 574.00,322.75 C568.32,325.59 566.87,327.93 569.11,330.63 ZM 760.49 269.61 C761.76,270.55 762.71,270.65 763.56,269.95 C766.31,267.67 777.21,263.00 779.77,263.01 C783.34,263.03 790.63,265.60 794.08,268.05 C799.56,271.96 801.10,269.94 799.81,260.53 C798.58,251.52 799.42,247.34 803.20,243.82 C804.87,242.25 807.54,239.34 809.12,237.34 C812.74,232.79 811.88,231.51 804.17,229.99 C791.89,227.56 790.99,226.87 785.06,215.13 C780.78,206.63 778.92,206.93 773.83,216.95 C771.74,221.04 769.41,225.02 768.63,225.79 C767.86,226.56 764.14,227.82 760.37,228.59 C751.80,230.34 749.69,230.73 749.17,231.86 C749.00,232.23 749.00,232.68 749.00,233.28 C749.00,233.35 749.00,233.41 749.00,233.48 C749.00,235.10 750.66,237.51 753.96,240.66 C760.98,247.36 761.59,249.29 759.97,259.70 C758.72,267.74 758.75,268.34 760.49,269.61 ZM 586.43 260.23 C585.77,269.57 585.83,270.00 587.75,270.00 C588.85,270.00 590.30,269.34 590.97,268.54 C593.03,266.06 603.15,262.77 607.12,263.30 C609.11,263.56 613.76,265.21 617.44,266.97 C621.12,268.73 624.83,269.89 625.69,269.57 C625.98,269.45 626.22,269.37 626.41,269.22 C627.24,268.55 626.99,266.54 625.53,254.69 L 625.45 254.00 L 624.77 248.49 L 631.39 241.35 C638.17,234.02 639.32,231.50 636.25,230.65 C633.75,229.97 625.13,228.22 620.89,227.54 C616.55,226.84 614.75,224.91 613.12,219.21 C612.45,216.84 610.56,213.47 608.94,211.71 L 605.98 208.50 L 603.47 211.50 C602.09,213.15 599.88,216.76 598.56,219.53 C595.21,226.52 593.48,227.75 584.67,229.44 C580.42,230.25 576.51,231.18 575.97,231.52 C574.05,232.70 575.08,234.86 580.09,240.14 C582.89,243.09 585.61,246.62 586.15,247.98 C586.73,249.45 586.84,254.46 586.43,260.23 ZM 673.01 237.25 C672.88,244.49 673.01,245.00 674.96,245.00 C676.12,245.00 679.83,243.60 683.22,241.89 C690.65,238.14 695.51,238.26 704.25,242.41 C713.30,246.71 713.56,246.44 713.15,233.48 L 712.80 222.50 L 718.40 216.88 C723.90,211.37 725.31,207.94 722.75,206.33 C722.06,205.89 718.21,205.26 714.19,204.93 C705.54,204.21 704.30,203.25 699.07,193.29 C696.13,187.69 695.07,186.50 693.02,186.50 C691.03,186.50 689.96,187.61 687.52,192.24 C682.58,201.59 679.41,204.11 671.60,204.92 C660.28,206.09 659.24,210.65 668.75,217.38 C670.17,218.39 671.15,219.02 671.82,219.90 C673.28,221.82 673.22,224.90 673.04,235.57 C673.03,236.11 673.02,236.67 673.01,237.25 ZM 617.42 260.39 C615.14,261.27 614.86,261.19 611.11,258.80 C607.81,256.68 607.60,256.67 602.98,258.31 C595.45,260.99 593.34,260.63 592.58,256.56 C592.22,254.67 592.20,252.06 592.52,250.77 C592.95,249.07 592.26,247.35 590.03,244.54 C586.83,240.52 585.39,236.80 586.40,235.17 C586.72,234.65 588.22,233.93 589.74,233.58 C596.12,232.08 598.22,230.65 599.97,226.58 C600.93,224.33 602.89,221.86 604.31,221.10 C606.77,219.78 607.07,219.90 610.20,223.47 C616.92,231.12 617.96,232.00 620.34,232.00 C621.68,232.00 623.83,232.85 625.12,233.90 C627.43,235.77 627.44,235.85 625.75,239.40 C624.81,241.38 623.59,243.00 623.04,243.00 C621.12,243.00 619.00,248.96 619.00,254.34 C619.00,258.38 618.59,259.94 617.42,260.39 ZM 775.00 258.50 C772.33,260.02 768.76,260.43 767.67,259.33 C767.30,258.97 767.00,256.10 767.00,252.96 C767.00,247.80 766.62,246.78 762.94,242.17 C757.93,235.87 758.54,233.68 765.74,232.16 C769.08,231.46 771.10,230.33 772.50,228.40 C773.60,226.88 775.74,224.26 777.25,222.57 L 780.00 219.50 L 782.75 222.66 C784.26,224.39 786.28,226.94 787.23,228.33 C788.19,229.71 790.66,231.35 792.73,231.99 C798.43,233.73 801.00,235.19 801.00,236.69 C801.00,237.44 799.17,240.03 796.93,242.46 C793.08,246.64 792.90,247.12 793.53,251.34 C794.51,257.87 793.55,260.00 789.62,260.00 C787.84,260.00 785.51,259.34 784.44,258.53 C781.98,256.67 778.22,256.66 775.00,258.50 ZM 688.99 234.39 C682.76,236.88 680.28,236.54 679.52,233.08 C679.17,231.48 679.17,228.58 679.54,226.65 C680.12,223.53 679.79,222.73 676.60,219.53 C671.99,214.93 671.88,211.87 676.25,209.71 C678.04,208.83 680.72,207.85 682.22,207.54 C683.72,207.23 685.46,205.97 686.10,204.74 C686.73,203.51 688.55,201.29 690.13,199.80 L 693.01 197.10 L 697.80 201.89 C700.43,204.52 703.85,207.00 705.40,207.38 C713.28,209.36 715.24,214.22 710.00,218.81 C707.23,221.24 707.00,221.96 707.00,228.11 C707.00,234.42 706.87,234.79 704.50,235.25 C703.12,235.51 699.98,235.06 697.51,234.25 C693.49,232.93 692.61,232.94 688.99,234.39 ZM 594.69 252.44 L 594.08 259.00 L 597.79 257.38 L 597.79 257.38 C603.30,254.98 605.25,254.13 607.07,254.35 C608.06,254.46 609.02,254.90 610.50,255.57 C612.70,256.56 615.31,257.74 616.31,258.18 C617.99,258.92 618.07,258.49 617.48,252.24 L 616.83 245.50 L 621.41 241.05 C626.05,236.54 626.07,235.06 621.50,235.01 C620.40,235.00 617.90,234.54 615.94,234.00 C612.90,233.16 611.94,232.11 609.50,227.00 C607.92,223.70 606.36,221.00 606.03,221.00 C605.70,221.00 604.08,223.80 602.44,227.21 L 599.46 233.43 L 593.70 234.58 C590.52,235.22 587.64,236.03 587.28,236.39 C586.92,236.75 588.58,239.03 590.96,241.46 L 595.30 245.88 ZM 768.62 252.43 C768.25,256.04 768.20,259.00 768.52,259.00 C768.83,259.00 771.20,257.88 773.79,256.50 C779.60,253.41 779.90,253.41 786.13,256.57 C788.92,257.98 791.41,258.93 791.66,258.67 C791.92,258.42 791.72,255.58 791.23,252.36 L 790.34 246.50 L 794.92 241.71 C800.13,236.26 799.83,235.58 791.76,234.47 C787.06,233.82 786.85,233.64 783.95,227.90 C782.31,224.66 780.54,222.00 780.00,222.00 C779.47,222.00 777.84,224.36 776.39,227.25 C774.93,230.14 773.28,232.79 772.72,233.15 C772.17,233.50 769.01,234.33 765.72,234.98 L 759.73 236.15 L 764.51 241.01 L 769.29 245.86 ZM 681.54 228.49 C681.15,232.07 681.21,234.99 681.67,234.97 C682.13,234.95 684.30,233.83 686.50,232.47 C691.36,229.48 693.88,229.39 699.00,232.00 C704.97,235.05 705.29,234.82 704.50,227.97 L 703.80 221.94 L 707.94 217.45 C712.24,212.79 712.45,211.00 708.69,210.99 C702.59,210.98 699.12,209.00 696.38,203.96 C694.90,201.23 693.33,199.00 692.90,199.00 C692.48,199.00 690.86,201.36 689.31,204.25 C686.59,209.34 686.33,209.53 680.82,210.50 C677.70,211.05 674.85,211.80 674.48,212.17 C674.12,212.54 675.71,214.90 678.03,217.41 L 682.24 221.98 ZM 750.78 369.44 C748.09,371.33 739.52,371.48 736.00,369.71 C734.25,368.83 733.41,367.48 733.19,365.23 C732.92,362.52 733.30,361.84 735.50,361.00 C739.17,359.60 750.34,359.74 751.80,361.20 C753.79,363.19 753.23,367.73 750.78,369.44 ZM 717.60 344.53 C715.79,347.00 702.09,348.04 700.33,345.85 C698.36,343.39 697.97,340.42 699.37,338.51 C700.53,336.93 702.03,336.64 708.98,336.68 C717.37,336.74 718.95,337.43 718.98,341.06 C718.99,341.92 718.37,343.48 717.60,344.53 ZM 785.17 393.35 C783.83,394.56 781.44,395.00 776.23,395.00 C770.01,395.00 768.92,394.72 767.56,392.78 C765.44,389.76 765.60,387.28 767.98,386.01 C770.76,384.52 783.74,384.54 785.54,386.03 C787.55,387.70 787.37,391.35 785.17,393.35 ZM 683.71 368.38 C682.68,369.78 680.64,370.36 675.37,370.74 C667.37,371.31 665.00,369.98 665.00,364.90 C665.00,361.36 667.74,359.99 674.82,360.01 C683.01,360.04 687.04,363.83 683.71,368.38 ZM 784.07 368.96 C781.59,370.29 771.04,370.26 768.75,368.92 C766.33,367.51 766.45,362.37 768.93,361.04 C770.00,360.47 773.40,360.00 776.50,360.00 C783.69,360.00 786.00,361.22 786.00,365.00 C786.00,366.87 785.30,368.30 784.07,368.96 ZM 648.07 368.96 C647.00,369.53 643.20,370.00 639.62,370.00 C634.13,370.00 632.88,369.67 631.63,367.89 C630.01,365.56 630.44,363.18 632.83,361.25 C635.06,359.46 645.07,359.66 647.78,361.56 C650.53,363.49 650.69,367.56 648.07,368.96 ZM 717.04 367.96 C715.90,369.78 703.33,370.56 700.75,368.98 C698.60,367.65 698.44,362.71 700.49,361.01 C701.48,360.19 704.37,359.91 709.05,360.17 C716.14,360.57 717.97,361.56 717.97,365.00 C717.97,365.83 717.55,367.16 717.04,367.96 ZM 614.17 368.35 C612.89,369.50 610.56,369.99 606.42,369.97 C599.09,369.93 597.00,368.81 597.00,364.93 C597.00,361.36 599.71,360.00 606.84,360.00 C614.60,360.00 618.50,364.43 614.17,368.35 ZM 615.12 391.63 C614.13,393.82 613.46,394.00 606.59,394.00 C597.16,394.00 594.36,391.93 597.04,386.93 C597.93,385.27 599.18,385.00 606.00,385.00 C613.06,385.00 614.05,385.23 615.07,387.13 C615.89,388.67 615.91,389.90 615.12,391.63 ZM 682.17 344.35 C680.86,345.53 678.48,346.00 673.79,346.00 C666.45,346.00 664.66,344.82 665.18,340.32 C665.45,337.93 666.08,337.42 669.50,336.80 C674.02,335.98 680.87,336.72 682.75,338.24 C684.55,339.69 684.29,342.43 682.17,344.35 ZM 648.25 344.61 C646.02,346.30 633.85,346.45 632.20,344.80 C630.68,343.28 630.63,338.34 632.13,337.42 C633.86,336.35 647.23,336.95 648.70,338.16 C650.54,339.70 650.31,343.04 648.25,344.61 ZM 614.17 344.35 C612.40,345.95 602.41,346.61 599.24,345.33 C596.98,344.42 595.83,341.18 597.00,339.00 C597.93,337.26 599.09,337.00 605.84,337.00 C613.75,337.00 616.00,337.90 616.00,341.05 C616.00,341.95 615.18,343.43 614.17,344.35 ZM 750.07 344.96 C747.39,346.40 735.68,346.28 734.20,344.80 C732.89,343.49 732.66,341.06 733.61,338.58 C734.09,337.33 735.81,337.00 741.91,337.00 C746.56,337.00 750.07,337.47 750.80,338.20 C752.64,340.04 752.23,343.81 750.07,344.96 ZM 648.80 392.80 C647.21,394.39 633.79,394.39 632.20,392.80 C631.54,392.14 631.00,390.65 631.00,389.50 C631.00,385.94 632.99,385.00 640.50,385.00 C648.01,385.00 650.00,385.94 650.00,389.50 C650.00,390.65 649.46,392.14 648.80,392.80 ZM 750.80 392.80 C749.21,394.39 735.79,394.39 734.20,392.80 C733.54,392.14 733.00,390.65 733.00,389.50 C733.00,385.94 734.99,385.00 742.50,385.00 C750.01,385.00 752.00,385.94 752.00,389.50 C752.00,390.65 751.46,392.14 750.80,392.80 ZM 784.95 344.56 C783.43,346.39 769.98,346.58 768.20,344.80 C766.57,343.17 766.68,339.51 768.41,338.08 C769.29,337.35 772.73,337.02 777.66,337.21 C785.43,337.50 785.50,337.53 785.82,340.31 C786.00,341.86 785.61,343.77 784.95,344.56 ZM 671.18 343.96 C676.72,346.24 682.28,342.85 678.76,339.33 C677.38,337.95 676.36,337.81 673.29,338.57 C668.80,339.68 667.68,342.53 671.18,343.96 ZM 771.36 342.49 C771.84,343.75 773.12,344.04 777.24,343.80 C781.73,343.54 782.50,343.21 782.50,341.50 C782.50,339.82 781.73,339.45 777.61,339.19 C772.35,338.86 770.37,339.90 771.36,342.49 ZM 635.10 391.11 C635.87,391.61 638.53,391.90 641.00,391.76 C644.75,391.54 645.50,391.17 645.50,389.50 C645.50,387.79 644.73,387.46 640.24,387.20 C636.08,386.96 634.84,387.24 634.34,388.55 C633.98,389.48 634.32,390.60 635.10,391.11 ZM 771.38 390.55 C772.32,393.00 782.00,392.04 782.00,389.49 C782.00,387.86 779.74,387.00 775.48,387.00 C771.88,387.00 770.48,388.21 771.38,390.55 ZM 738.25 391.36 C738.94,391.65 741.30,391.80 743.50,391.69 C746.77,391.54 747.50,391.13 747.50,389.50 C747.50,387.30 743.73,386.35 739.38,387.44 C736.85,388.08 736.16,390.48 738.25,391.36 ZM 739.25 367.37 C740.85,368.06 747.23,367.10 748.36,366.01 C750.11,364.31 747.75,363.00 742.94,363.00 C738.74,363.00 738.00,363.29 738.00,364.92 C738.00,365.97 738.56,367.07 739.25,367.37 ZM 603.50 343.12 C608.33,344.15 609.69,344.08 610.82,342.72 C612.81,340.32 610.56,338.86 605.40,339.19 C599.72,339.55 598.50,342.05 603.50,343.12 ZM 704.75 367.31 C707.86,368.12 708.52,368.03 710.83,366.41 C712.63,365.15 712.85,364.53 711.93,363.41 C710.54,361.75 707.64,361.59 704.93,363.04 C702.52,364.33 702.42,366.70 704.75,367.31 ZM 670.81 366.86 C675.89,368.72 679.82,367.59 678.68,364.60 C678.24,363.47 676.77,363.00 673.64,363.00 C668.32,363.00 666.61,365.32 670.81,366.86 ZM 772.47 366.60 C774.25,367.90 779.64,367.51 781.36,365.95 C783.08,364.40 780.78,363.00 776.50,363.00 C771.60,363.00 769.78,364.63 772.47,366.60 ZM 738.69 342.93 C742.14,345.01 750.34,342.09 746.99,339.97 C744.74,338.55 739.40,338.82 738.07,340.42 C737.14,341.54 737.27,342.07 738.69,342.93 ZM 634.74 366.40 C635.74,367.41 644.84,367.07 645.50,366.00 C646.26,364.77 641.87,363.00 638.04,363.00 C635.40,363.00 633.39,365.06 634.74,366.40 ZM 705.10 343.09 C707.84,344.82 713.00,343.78 713.00,341.50 C713.00,338.77 705.33,337.98 704.32,340.60 C703.98,341.48 704.34,342.60 705.10,343.09 ZM 604.50 367.26 C607.32,367.79 610.50,366.53 610.50,364.89 C610.50,362.83 602.69,362.46 601.05,364.44 C599.68,366.08 600.11,366.43 604.50,367.26 ZM 635.18 341.31 C634.88,342.88 635.45,343.08 639.67,342.81 C643.16,342.59 644.50,342.08 644.50,341.00 C644.50,338.61 635.64,338.90 635.18,341.31 ZM 601.18 389.31 C600.88,390.88 601.45,391.08 605.67,390.81 C609.16,390.59 610.50,390.08 610.50,389.00 C610.50,386.61 601.64,386.90 601.18,389.31 Z" fill="rgb(214,187,56)"/>
      <path d="M 676.00 713.38 C671.88,709.82 666.03,704.32 663.00,701.16 C659.97,698.01 655.92,694.33 654.00,692.98 C648.58,689.18 596.32,636.59 595.55,634.15 C595.17,632.97 594.52,632.00 594.10,632.00 C592.87,632.00 585.25,624.79 582.48,621.00 C579.48,616.90 562.60,598.55 555.75,591.95 C553.14,589.44 551.00,587.05 551.00,586.65 C551.00,586.25 549.14,584.03 546.88,581.71 C544.61,579.40 540.06,574.12 536.76,570.00 C533.46,565.88 529.36,561.10 527.63,559.39 C525.91,557.68 522.83,554.08 520.78,551.38 C518.74,548.69 514.59,543.79 511.56,540.49 C508.54,537.20 506.05,534.18 506.03,533.79 C506.01,533.40 504.31,531.30 502.25,529.14 C497.63,524.28 489.67,514.55 485.00,508.05 C483.08,505.37 479.37,500.32 476.76,496.84 C464.53,480.47 462.58,477.69 460.22,473.25 C458.84,470.64 456.19,466.65 454.35,464.40 C452.51,462.14 451.00,459.87 451.00,459.34 C451.00,458.82 449.59,456.17 447.86,453.45 C446.14,450.73 444.27,447.15 443.72,445.50 C443.17,443.85 442.20,441.83 441.57,441.00 C438.82,437.41 423.00,398.47 423.00,395.30 C423.00,394.39 422.15,390.91 421.11,387.57 C416.09,371.46 412.60,343.52 412.54,319.00 C412.50,299.26 413.56,287.44 417.16,267.50 C418.89,257.91 419.98,253.31 424.06,238.50 C425.80,232.17 428.29,225.25 431.09,218.92 C432.69,215.30 434.00,211.76 434.00,211.04 C434.00,209.16 446.73,183.28 448.07,182.46 C448.69,182.07 449.73,180.58 450.37,179.13 C452.25,174.91 457.84,165.85 461.30,161.38 C463.06,159.11 466.08,155.10 468.00,152.47 C469.92,149.83 473.39,145.14 475.69,142.03 C483.80,131.10 507.51,109.21 525.33,96.19 C527.08,94.92 529.62,92.81 531.00,91.51 C532.38,90.20 536.20,87.72 539.50,86.00 C542.80,84.27 546.40,82.04 547.50,81.03 C549.38,79.31 559.33,74.33 582.34,63.59 C587.75,61.07 593.29,59.00 594.64,59.00 C595.99,59.00 598.31,58.38 599.80,57.61 C602.81,56.07 612.88,53.26 620.50,51.84 C623.25,51.33 627.20,50.26 629.27,49.46 C631.34,48.66 634.95,48.00 637.28,48.00 C639.61,48.00 643.09,47.54 645.01,46.98 C654.48,44.21 701.55,42.93 716.50,45.03 C720.90,45.65 727.20,46.52 730.50,46.95 C736.75,47.77 747.29,50.20 755.00,52.61 C757.47,53.38 760.62,54.02 762.00,54.03 C763.38,54.04 766.53,54.97 769.00,56.10 C771.47,57.23 775.53,58.85 778.00,59.69 C780.47,60.52 784.97,62.34 788.00,63.71 C791.03,65.08 795.75,67.06 798.50,68.10 C801.25,69.13 807.55,72.31 812.50,75.15 C817.45,78.00 823.53,81.40 826.00,82.71 C828.47,84.03 832.08,86.20 834.00,87.55 C847.00,96.61 852.58,100.78 854.34,102.75 C855.45,103.99 856.84,105.00 857.43,105.00 C858.02,105.01 861.71,108.04 865.62,111.75 C869.54,115.46 874.04,119.65 875.62,121.06 C878.78,123.87 897.21,144.20 900.67,148.68 C901.86,150.23 903.92,152.85 905.24,154.50 C909.12,159.37 914.04,167.05 917.71,174.00 C919.61,177.57 921.97,181.40 922.96,182.50 C923.95,183.60 926.00,187.20 927.51,190.50 C929.02,193.80 931.54,199.15 933.13,202.39 C934.71,205.63 936.00,208.95 936.00,209.77 C936.00,210.59 936.86,212.67 937.91,214.38 C938.97,216.10 940.78,220.43 941.95,224.00 C943.12,227.57 944.48,231.40 944.99,232.50 C945.99,234.68 949.15,245.82 950.81,253.00 C951.38,255.48 952.53,260.42 953.36,264.00 C959.09,288.54 960.46,330.51 956.39,356.50 C952.78,379.52 941.59,418.90 937.00,424.73 C935.90,426.13 935.00,427.80 935.00,428.45 C935.00,429.10 933.20,433.17 931.00,437.50 C928.80,441.83 927.00,445.86 927.00,446.46 C927.00,447.06 925.40,449.98 923.44,452.96 C921.48,455.93 919.23,459.75 918.43,461.43 C917.64,463.12 915.67,466.52 914.05,469.00 C912.43,471.48 910.37,474.92 909.48,476.66 C908.59,478.40 906.99,480.60 905.93,481.56 C904.87,482.52 904.00,483.74 904.00,484.27 C904.00,484.80 902.76,486.72 901.25,488.54 C899.74,490.35 896.95,494.01 895.05,496.67 C893.16,499.33 890.53,502.62 889.21,504.00 C887.89,505.38 884.39,509.65 881.44,513.50 C865.71,533.99 861.76,538.95 857.34,543.70 C852.21,549.21 847.74,554.33 840.91,562.50 C838.61,565.25 836.09,567.87 835.32,568.32 C834.54,568.78 832.69,571.09 831.21,573.46 C829.72,575.83 823.47,583.11 817.31,589.64 C811.16,596.16 804.48,603.53 802.47,606.00 C800.46,608.47 796.66,612.75 794.02,615.50 C775.14,635.18 753.52,657.27 742.50,668.14 C735.35,675.20 729.05,681.44 728.50,682.01 C724.88,685.75 707.97,701.73 702.80,706.29 C690.54,717.10 686.82,719.99 685.24,719.93 C684.28,719.90 680.12,716.95 676.00,713.38 ZM 720.00 515.99 C729.81,514.56 735.96,513.13 739.00,511.58 C741.47,510.32 745.95,508.70 748.95,507.99 C751.95,507.28 756.90,505.61 759.95,504.28 C763.00,502.95 767.75,500.90 770.50,499.71 C773.25,498.53 776.62,496.73 778.00,495.72 C779.38,494.71 784.69,491.41 789.81,488.39 C803.44,480.34 809.66,475.46 826.59,459.50 C832.42,454.00 838.26,447.70 839.55,445.49 C840.85,443.29 843.50,439.94 845.45,438.04 C847.40,436.15 849.00,434.08 849.00,433.44 C849.00,432.80 849.84,431.20 850.87,429.88 C851.89,428.57 854.06,425.02 855.67,422.00 C857.29,418.98 859.76,414.70 861.16,412.50 C864.47,407.28 872.02,390.47 873.06,386.00 C873.51,384.08 874.85,379.35 876.03,375.50 C882.39,354.83 883.93,344.32 883.97,321.24 C884.02,291.93 880.10,270.42 870.44,247.00 C868.97,243.43 867.43,240.05 867.02,239.50 C866.61,238.95 866.01,237.08 865.68,235.34 C865.17,232.62 862.94,228.42 857.24,219.48 C856.55,218.39 855.45,216.38 854.80,215.00 C854.15,213.62 852.78,211.55 851.76,210.38 C850.73,209.22 849.58,207.09 849.20,205.66 C848.16,201.79 819.59,170.50 813.25,166.29 C810.29,164.33 806.07,160.98 803.85,158.86 C801.64,156.74 799.35,155.00 798.76,155.00 C798.17,155.00 796.30,153.98 794.59,152.72 C788.38,148.15 773.28,139.64 766.00,136.60 C756.21,132.52 742.04,127.70 738.50,127.25 C736.30,126.96 734.05,126.40 733.50,126.00 C731.41,124.47 717.38,122.03 699.50,120.09 C683.97,118.41 648.47,121.76 637.68,125.91 C636.14,126.51 633.79,127.00 632.47,127.00 C631.15,127.00 628.59,127.66 626.78,128.46 C624.98,129.27 617.56,132.23 610.29,135.06 C603.03,137.88 596.56,140.82 595.92,141.60 C595.28,142.37 594.16,143.00 593.43,143.00 C591.92,143.00 581.04,149.18 576.41,152.67 C574.70,153.95 572.82,155.00 572.22,155.00 C569.24,155.00 532.63,190.37 525.75,199.91 C523.69,202.76 522.00,205.47 522.00,205.91 C522.00,206.36 520.65,208.42 519.00,210.50 C517.35,212.58 516.00,214.83 516.00,215.52 C516.00,216.20 515.36,217.29 514.58,217.94 C512.88,219.34 503.98,237.41 501.49,244.50 C500.52,247.25 498.93,251.30 497.96,253.50 C494.96,260.28 490.55,276.96 489.49,285.50 C486.86,306.73 486.31,316.82 487.09,329.71 C488.06,345.95 489.38,355.06 492.05,364.07 C493.12,367.68 494.00,371.46 494.00,372.47 C494.00,374.87 503.21,398.59 507.60,407.50 C509.49,411.35 512.83,417.42 515.01,421.00 C517.20,424.58 519.70,429.04 520.58,430.93 C521.46,432.82 525.06,437.67 528.59,441.71 C532.12,445.76 535.00,449.41 535.00,449.84 C535.00,451.13 552.20,467.71 556.50,470.57 C558.70,472.03 561.22,473.97 562.10,474.87 C566.50,479.35 577.66,487.76 580.34,488.60 C581.53,488.97 585.64,491.32 589.47,493.82 C593.31,496.32 598.64,499.20 601.33,500.22 C604.01,501.23 608.29,503.12 610.85,504.41 C613.41,505.70 617.82,507.24 620.66,507.85 C623.50,508.45 628.23,509.87 631.16,511.01 C638.63,513.90 649.36,515.76 674.00,518.44 C681.77,519.29 706.36,517.98 720.00,515.99 ZM 615.09 454.24 C594.93,454.07 582.21,453.59 581.44,452.95 C580.67,452.31 579.98,447.56 579.59,440.22 C578.51,420.02 578.47,411.26 579.34,384.42 C580.26,356.09 579.40,342.50 576.56,340.42 C575.68,339.78 573.14,338.96 570.91,338.60 C559.66,336.80 557.73,321.93 568.19,317.56 C573.07,315.52 581.31,311.71 598.00,303.76 C613.26,296.50 616.63,295.00 617.70,295.00 C618.97,295.00 623.01,293.18 632.92,288.15 C637.64,285.75 645.33,282.23 650.00,280.31 C654.67,278.40 664.83,273.68 672.57,269.81 C692.15,260.05 692.53,260.03 709.79,268.27 C717.33,271.87 726.42,276.05 730.00,277.55 C733.58,279.05 741.45,282.72 747.50,285.70 C753.55,288.67 763.22,293.13 769.00,295.60 C779.77,300.20 785.60,302.93 790.00,305.42 C793.54,307.42 808.87,314.57 812.79,316.04 C816.51,317.44 822.00,323.53 822.00,326.27 C822.00,330.49 817.99,335.97 813.07,338.46 C809.40,340.32 808.03,341.64 807.61,343.72 C807.31,345.25 807.13,369.45 807.21,397.50 C807.29,425.55 807.02,449.51 806.61,450.75 C806.20,451.98 804.88,453.23 803.68,453.51 C801.17,454.10 663.33,454.63 615.09,454.24 ZM 663.06 448.72 C663.92,448.05 664.99,446.60 665.44,445.50 C665.89,444.40 666.42,430.25 666.62,414.05 C666.92,389.13 667.22,384.36 668.52,383.05 C670.85,380.72 716.91,381.16 718.64,383.52 C719.45,384.62 719.81,393.49 719.83,412.80 C719.85,428.98 720.28,441.54 720.87,443.00 C721.58,444.76 721.89,436.14 721.94,413.87 C721.97,399.35 721.88,390.78 721.59,386.07 C721.93,390.91 722.12,399.72 722.24,414.36 L 722.50 446.50 L 800.00 447.02 L 800.00 447.05 L 761.00 446.77 C739.55,446.62 722.00,446.77 722.00,447.09 C722.00,447.41 723.10,448.18 724.44,448.79 C727.41,450.15 797.78,450.42 799.89,449.08 C801.89,447.82 802.97,439.76 802.36,430.50 C801.77,421.46 800.58,417.46 798.16,416.45 C797.25,416.07 784.12,415.57 769.00,415.33 C738.89,414.87 736.71,414.67 737.18,412.41 C737.46,411.10 741.59,410.87 767.79,410.73 C796.11,410.59 798.18,410.45 799.79,408.68 C801.32,406.99 801.53,403.29 801.76,373.15 C802.04,336.03 802.00,335.74 795.98,332.80 C794.06,331.87 786.65,328.22 779.50,324.70 C772.35,321.17 765.38,317.96 764.00,317.56 C761.99,316.98 734.86,304.49 727.74,300.87 C726.77,300.38 722.50,298.59 718.24,296.90 C713.98,295.22 709.83,293.26 709.00,292.56 C706.36,290.31 695.85,286.00 693.01,286.00 C689.66,286.00 680.58,289.56 676.50,292.48 C674.85,293.66 670.58,295.64 667.00,296.89 C663.42,298.13 653.75,302.46 645.50,306.50 C629.96,314.11 621.51,318.00 620.55,318.00 C620.25,318.00 612.65,321.55 603.67,325.89 C589.96,332.51 587.16,334.24 586.23,336.64 C585.01,339.81 584.55,356.17 584.82,386.68 C584.97,403.00 585.28,407.14 586.48,408.34 C587.69,409.55 592.31,409.87 611.73,410.07 C624.80,410.21 637.53,410.27 640.00,410.20 C646.15,410.03 649.00,410.76 649.00,412.52 C649.00,413.33 648.89,414.10 648.75,414.21 C648.61,414.33 635.05,414.67 618.61,414.96 L 588.71 415.50 L 586.72 418.17 C584.99,420.48 584.71,422.51 584.62,433.17 C584.56,441.48 584.94,446.23 585.80,447.75 L 587.07 450.00 L 624.29 449.97 C651.98,449.94 661.90,449.62 663.06,448.72 ZM 581.50 330.53 C583.70,329.29 587.30,327.70 589.50,327.00 C595.58,325.07 613.19,316.47 615.90,314.10 C617.22,312.94 618.99,312.00 619.82,312.00 C621.92,312.00 633.04,307.66 641.65,303.47 C645.59,301.56 649.13,300.00 649.52,300.00 C649.92,300.00 652.77,298.48 655.87,296.63 C658.97,294.78 662.83,292.95 664.46,292.56 C666.09,292.17 669.69,290.80 672.46,289.52 C675.23,288.23 681.10,285.54 685.50,283.55 L 693.50 279.92 L 714.50 289.31 C736.70,299.23 743.62,302.62 748.50,305.94 C750.15,307.07 752.23,307.99 753.13,307.99 C754.83,308.00 769.59,314.79 779.00,319.89 C788.91,325.26 810.07,333.79 812.14,333.25 C815.11,332.48 817.21,328.69 816.42,325.53 C815.92,323.55 814.41,322.24 810.53,320.47 C807.66,319.16 804.74,317.39 804.04,316.54 C803.33,315.69 802.30,315.00 801.75,315.00 C799.43,315.00 771.21,302.27 753.86,293.40 C750.20,291.53 746.56,290.00 745.77,290.00 C744.97,290.00 740.68,288.20 736.24,286.00 C731.80,283.80 727.74,282.00 727.22,282.00 C726.70,282.00 724.75,280.98 722.89,279.74 C721.03,278.49 717.47,276.62 715.00,275.57 C712.53,274.53 707.20,272.17 703.16,270.34 C695.08,266.66 692.13,266.29 688.15,268.43 C686.69,269.21 681.45,271.52 676.50,273.55 C667.03,277.45 654.22,283.21 649.99,285.48 C648.61,286.22 643.95,288.23 639.63,289.95 C635.31,291.66 630.14,293.94 628.14,295.00 C618.09,300.35 592.06,312.06 587.00,313.51 C585.62,313.91 583.60,315.04 582.50,316.04 C581.40,317.04 579.28,318.15 577.79,318.52 C576.30,318.89 574.56,319.83 573.92,320.60 C573.28,321.37 572.28,322.00 571.71,322.00 C568.04,322.00 565.40,329.46 568.25,331.77 C571.48,334.39 575.31,334.03 581.50,330.53 ZM 712.71 447.71 C714.33,446.10 714.52,443.39 714.71,419.71 C714.92,393.03 714.46,388.83 711.16,387.46 C710.25,387.08 701.73,386.65 692.24,386.50 L 674.97 386.22 L 673.00 388.73 C671.12,391.11 671.03,392.67 671.26,418.22 L 671.50 445.19 L 674.20 447.35 C676.73,449.36 678.00,449.50 693.92,449.50 C708.91,449.50 711.14,449.29 712.71,447.71 ZM 760.49 269.61 C758.75,268.34 758.72,267.74 759.97,259.70 C761.59,249.29 760.98,247.36 753.96,240.66 C750.66,237.51 749.00,235.10 749.00,233.48 C749.00,233.41 749.00,233.35 749.00,233.28 C749.00,232.68 749.00,232.23 749.17,231.86 C749.69,230.73 751.80,230.34 760.37,228.59 C764.14,227.82 767.86,226.56 768.63,225.79 C769.41,225.02 771.74,221.04 773.83,216.95 C778.92,206.93 780.78,206.63 785.06,215.13 C790.99,226.87 791.89,227.56 804.17,229.99 C811.88,231.51 812.74,232.79 809.12,237.34 C807.54,239.34 804.87,242.25 803.20,243.82 C799.42,247.34 798.58,251.52 799.81,260.53 C801.10,269.94 799.56,271.96 794.08,268.05 C790.63,265.60 783.34,263.03 779.77,263.01 C777.21,263.00 766.31,267.67 763.56,269.95 C762.71,270.65 761.76,270.55 760.49,269.61 ZM 586.43 260.23 C586.84,254.46 586.73,249.45 586.15,247.98 C585.61,246.62 582.89,243.09 580.09,240.14 C575.08,234.86 574.05,232.70 575.97,231.52 C576.51,231.18 580.42,230.25 584.67,229.44 C593.48,227.75 595.21,226.52 598.56,219.53 C599.88,216.76 602.09,213.15 603.47,211.50 L 605.98 208.50 L 608.94 211.71 C610.56,213.47 612.45,216.84 613.12,219.21 C614.75,224.91 616.55,226.84 620.89,227.54 C625.13,228.22 633.75,229.97 636.25,230.65 C639.32,231.50 638.17,234.02 631.39,241.35 L 624.77 248.49 L 625.45 254.00 L 625.53 254.69 C626.99,266.54 627.24,268.55 626.41,269.22 C626.22,269.37 625.98,269.45 625.69,269.57 C624.83,269.89 621.12,268.73 617.44,266.97 C613.76,265.21 609.11,263.56 607.12,263.30 C603.15,262.77 593.03,266.06 590.97,268.54 C590.30,269.34 588.85,270.00 587.75,270.00 C585.83,270.00 585.77,269.57 586.43,260.23 ZM 673.01 237.25 C673.02,236.67 673.03,236.11 673.04,235.57 C673.22,224.90 673.28,221.82 671.82,219.90 C671.15,219.02 670.17,218.39 668.75,217.38 C659.24,210.65 660.28,206.09 671.60,204.92 C679.41,204.11 682.58,201.59 687.52,192.24 C689.96,187.61 691.03,186.50 693.02,186.50 C695.07,186.50 696.13,187.69 699.07,193.29 C704.30,203.25 705.54,204.21 714.19,204.93 C718.21,205.26 722.06,205.89 722.75,206.33 C725.31,207.94 723.90,211.37 718.40,216.88 L 712.80 222.50 L 713.15 233.48 C713.56,246.44 713.30,246.71 704.25,242.41 C695.51,238.26 690.65,238.14 683.22,241.89 C679.83,243.60 676.12,245.00 674.96,245.00 C673.01,245.00 672.88,244.49 673.01,237.25 ZM 617.42 260.39 C618.59,259.94 619.00,258.38 619.00,254.34 C619.00,248.96 621.12,243.00 623.04,243.00 C623.59,243.00 624.81,241.38 625.75,239.40 C627.44,235.85 627.43,235.77 625.12,233.90 C623.83,232.85 621.68,232.00 620.34,232.00 C617.96,232.00 616.92,231.12 610.20,223.47 C607.07,219.90 606.77,219.78 604.31,221.10 C602.89,221.86 600.93,224.33 599.97,226.58 C598.22,230.65 596.12,232.08 589.74,233.58 C588.22,233.93 586.72,234.65 586.40,235.17 C585.39,236.80 586.83,240.52 590.03,244.54 C592.26,247.35 592.95,249.07 592.52,250.77 C592.20,252.06 592.22,254.67 592.58,256.56 C593.34,260.63 595.45,260.99 602.98,258.31 C607.60,256.67 607.81,256.68 611.11,258.80 C614.86,261.19 615.14,261.27 617.42,260.39 ZM 775.00 258.50 C778.22,256.66 781.98,256.67 784.44,258.53 C785.51,259.34 787.84,260.00 789.62,260.00 C793.55,260.00 794.51,257.87 793.53,251.34 C792.90,247.12 793.08,246.64 796.93,242.46 C799.17,240.03 801.00,237.44 801.00,236.69 C801.00,235.19 798.43,233.73 792.73,231.99 C790.66,231.35 788.19,229.71 787.23,228.33 C786.28,226.94 784.26,224.39 782.75,222.66 L 780.00 219.50 L 777.25 222.57 C775.74,224.26 773.60,226.88 772.50,228.40 C771.10,230.33 769.08,231.46 765.74,232.16 C758.54,233.68 757.93,235.87 762.94,242.17 C766.62,246.78 767.00,247.80 767.00,252.96 C767.00,256.10 767.30,258.97 767.67,259.33 C768.76,260.43 772.33,260.02 775.00,258.50 ZM 688.99 234.39 C692.61,232.94 693.49,232.93 697.51,234.25 C699.98,235.06 703.12,235.51 704.50,235.25 C706.87,234.79 707.00,234.42 707.00,228.11 C707.00,221.96 707.23,221.24 710.00,218.81 C715.24,214.22 713.28,209.36 705.40,207.38 C703.85,207.00 700.43,204.52 697.80,201.89 L 693.01 197.10 L 690.13 199.80 C688.55,201.29 686.73,203.51 686.10,204.74 C685.46,205.97 683.72,207.23 682.22,207.54 C680.72,207.85 678.04,208.83 676.25,209.71 C671.88,211.87 671.99,214.93 676.60,219.53 C679.79,222.73 680.12,223.53 679.54,226.65 C679.17,228.58 679.17,231.48 679.52,233.08 C680.28,236.54 682.76,236.88 688.99,234.39 ZM 671.18 343.96 C667.68,342.53 668.80,339.68 673.29,338.57 C676.36,337.81 677.38,337.95 678.76,339.33 C682.28,342.85 676.72,346.24 671.18,343.96 ZM 771.36 342.49 C770.37,339.90 772.35,338.86 777.61,339.19 C781.73,339.45 782.50,339.82 782.50,341.50 C782.50,343.21 781.73,343.54 777.24,343.80 C773.12,344.04 771.84,343.75 771.36,342.49 ZM 635.10 391.11 C634.32,390.60 633.98,389.48 634.34,388.55 C634.84,387.24 636.08,386.96 640.24,387.20 C644.73,387.46 645.50,387.79 645.50,389.50 C645.50,391.17 644.75,391.54 641.00,391.76 C638.53,391.90 635.87,391.61 635.10,391.11 ZM 771.38 390.55 C770.48,388.21 771.88,387.00 775.48,387.00 C779.74,387.00 782.00,387.86 782.00,389.49 C782.00,392.04 772.32,393.00 771.38,390.55 ZM 738.25 391.36 C736.16,390.48 736.85,388.08 739.38,387.44 C743.73,386.35 747.50,387.30 747.50,389.50 C747.50,391.13 746.77,391.54 743.50,391.69 C741.30,391.80 738.94,391.65 738.25,391.36 ZM 739.25 367.37 C738.56,367.07 738.00,365.97 738.00,364.92 C738.00,363.29 738.74,363.00 742.94,363.00 C747.75,363.00 750.11,364.31 748.36,366.01 C747.23,367.10 740.85,368.06 739.25,367.37 ZM 603.50 343.12 C598.50,342.05 599.72,339.55 605.40,339.19 C610.56,338.86 612.81,340.32 610.82,342.72 C609.69,344.08 608.33,344.15 603.50,343.12 ZM 704.75 367.31 C702.42,366.70 702.52,364.33 704.93,363.04 C707.64,361.59 710.54,361.75 711.93,363.41 C712.85,364.53 712.63,365.15 710.83,366.41 C708.52,368.03 707.86,368.12 704.75,367.31 ZM 670.81 366.86 C666.61,365.32 668.32,363.00 673.64,363.00 C676.77,363.00 678.24,363.47 678.68,364.60 C679.82,367.59 675.89,368.72 670.81,366.86 ZM 772.47 366.60 C769.78,364.63 771.60,363.00 776.50,363.00 C780.78,363.00 783.08,364.40 781.36,365.95 C779.64,367.51 774.25,367.90 772.47,366.60 ZM 738.69 342.93 C737.27,342.07 737.14,341.54 738.07,340.42 C739.40,338.82 744.74,338.55 746.99,339.97 C750.34,342.09 742.14,345.01 738.69,342.93 ZM 634.74 366.40 C633.39,365.06 635.40,363.00 638.04,363.00 C641.87,363.00 646.26,364.77 645.50,366.00 C644.84,367.07 635.74,367.41 634.74,366.40 ZM 705.10 343.09 C704.34,342.60 703.98,341.48 704.32,340.60 C705.33,337.98 713.00,338.77 713.00,341.50 C713.00,343.78 707.84,344.82 705.10,343.09 ZM 604.50 367.26 C600.11,366.43 599.68,366.08 601.05,364.44 C602.69,362.46 610.50,362.83 610.50,364.89 C610.50,366.53 607.32,367.79 604.50,367.26 ZM 635.18 341.31 C635.64,338.90 644.50,338.61 644.50,341.00 C644.50,342.08 643.16,342.59 639.67,342.81 C635.45,343.08 634.88,342.88 635.18,341.31 ZM 601.18 389.31 C601.64,386.90 610.50,386.61 610.50,389.00 C610.50,390.08 609.16,390.59 605.67,390.81 C601.45,391.08 600.88,390.88 601.18,389.31 ZM 733.20 411.39 C733.49,410.31 734.08,409.49 734.93,409.04 C734.07,409.50 733.49,410.38 733.20,411.39 ZM 733.20 414.61 C733.49,415.62 734.07,416.50 734.93,416.96 C734.08,416.51 733.49,415.69 733.20,414.61 ZM 717.94 380.70 C719.56,380.86 720.52,381.02 720.73,381.19 C720.49,381.02 719.54,380.86 717.94,380.70 Z" fill="rgb(229,188,14)"/>
      <path d="M 711.90 702.61 C710.11,704.29 708.45,705.85 706.90,707.31 C693.99,719.45 688.69,724.44 683.93,723.97 C680.03,723.58 676.50,719.53 669.47,712.75 C629.81,674.48 575.67,619.67 558.12,600.00 C552.47,593.67 543.78,584.10 538.80,578.72 C533.82,573.35 528.51,567.27 527.00,565.22 C525.50,563.18 522.36,559.47 520.04,557.00 C517.71,554.53 515.21,551.38 514.46,550.00 C513.72,548.62 511.82,546.15 510.24,544.50 C508.66,542.85 505.82,539.47 503.93,537.00 C502.04,534.52 499.60,531.55 498.50,530.40 C497.40,529.25 494.92,526.43 493.00,524.13 C491.08,521.83 488.26,518.54 486.75,516.83 C485.24,515.11 484.00,513.38 484.00,512.99 C484.00,512.60 482.43,510.53 480.52,508.39 C471.89,498.76 472.29,499.30 457.57,477.33 C454.56,472.84 451.39,467.67 450.52,465.83 C448.63,461.83 447.21,459.45 444.32,455.42 C443.12,453.75 441.83,451.16 441.46,449.68 C441.08,448.20 440.35,446.72 439.84,446.40 C438.79,445.75 434.95,437.47 431.77,429.00 C430.63,425.98 428.91,422.48 427.95,421.24 C426.98,419.99 425.64,416.62 424.96,413.74 C424.29,410.86 423.17,407.38 422.48,406.00 C420.87,402.77 417.81,391.26 415.05,378.00 C413.84,372.23 412.12,364.35 411.22,360.50 C409.88,354.74 409.59,347.40 409.59,319.00 C409.59,298.23 410.02,282.31 410.68,279.00 C413.96,262.38 415.29,255.86 416.61,250.00 C418.37,242.22 425.70,219.52 427.59,216.00 C429.21,212.99 429.79,211.73 436.37,197.01 C439.19,190.69 443.15,183.04 445.17,180.01 C447.18,176.98 449.97,172.23 451.37,169.45 C452.77,166.67 454.83,163.56 455.95,162.54 C457.08,161.52 458.00,160.18 458.00,159.55 C458.00,157.21 479.68,131.35 490.50,120.79 C501.01,110.54 503.19,108.53 511.60,101.38 C515.85,97.77 519.96,94.19 520.73,93.41 C521.51,92.63 522.71,92.00 523.40,92.00 C524.09,92.00 525.74,90.83 527.08,89.40 C528.41,87.97 531.97,85.54 535.00,84.00 C538.03,82.46 543.42,79.38 547.00,77.15 C550.58,74.91 555.75,71.94 558.50,70.53 C561.25,69.12 564.62,67.33 566.00,66.54 C570.86,63.76 583.76,58.00 585.14,58.00 C585.90,58.00 589.00,57.05 592.01,55.89 C595.03,54.74 599.30,53.41 601.50,52.95 C603.70,52.49 610.45,50.72 616.50,49.03 C640.85,42.21 655.14,40.48 686.50,40.57 C713.15,40.63 732.63,42.44 745.00,45.98 C748.58,47.00 753.53,48.36 756.00,49.00 C764.60,51.23 773.51,53.80 776.00,54.77 C777.38,55.31 780.97,56.54 784.00,57.51 C787.03,58.49 791.53,60.30 794.00,61.55 C796.47,62.80 802.90,66.00 808.27,68.66 C813.65,71.32 819.27,74.11 820.77,74.86 C827.39,78.17 849.16,92.90 850.81,95.18 C851.53,96.18 852.68,97.00 853.38,97.00 C854.08,97.00 855.74,98.18 857.08,99.62 C858.41,101.06 861.08,103.26 863.00,104.50 C864.92,105.75 872.46,112.78 879.74,120.13 C897.47,138.03 898.19,138.82 901.57,143.95 C903.18,146.39 906.41,150.37 908.75,152.79 C911.09,155.21 913.00,157.97 913.00,158.94 C913.00,159.90 913.94,161.54 915.08,162.57 C916.23,163.61 917.80,165.82 918.59,167.48 C919.37,169.14 921.34,172.52 922.97,175.00 C924.59,177.48 926.77,181.07 927.81,183.00 C935.38,197.06 937.41,201.15 939.22,206.00 C940.34,209.02 941.64,211.97 942.09,212.55 C943.11,213.86 948.85,230.05 950.22,235.50 C950.77,237.70 952.10,243.10 953.17,247.50 C954.24,251.90 955.99,258.20 957.06,261.50 C958.13,264.80 959.00,268.88 959.00,270.57 C959.00,272.26 959.64,278.11 960.42,283.57 C962.83,300.37 963.35,329.47 961.52,345.00 C960.64,352.42 959.55,361.88 959.09,366.00 C958.63,370.12 957.59,375.08 956.76,377.00 C955.46,380.05 952.60,390.61 950.00,402.00 C948.53,408.41 943.65,421.47 941.81,423.88 C940.82,425.20 940.00,426.89 940.00,427.65 C940.00,428.41 939.59,429.81 939.09,430.76 C937.96,432.91 933.95,441.66 930.72,449.04 C929.39,452.08 925.98,457.82 923.15,461.79 C920.32,465.76 918.00,469.30 918.00,469.67 C918.00,470.77 911.80,480.27 908.55,484.15 C906.87,486.15 904.47,489.30 903.20,491.15 C901.94,492.99 898.79,497.38 896.20,500.89 C890.42,508.75 884.66,516.68 882.31,520.00 C881.34,521.38 879.97,522.86 879.26,523.31 C878.55,523.75 871.87,531.63 864.42,540.81 C845.87,563.67 845.59,563.99 836.12,573.81 C831.50,578.59 825.59,585.42 822.97,589.00 C820.35,592.58 815.57,598.01 812.35,601.07 C806.19,606.94 795.50,618.18 783.00,631.93 C770.02,646.22 735.64,680.40 711.90,702.61 ZM 691.07 719.27 C711.30,702.24 762.55,651.84 793.02,619.00 C827.20,582.16 848.77,557.33 880.08,518.76 C931.52,455.40 953.46,406.89 959.96,342.14 C964.05,301.38 956.40,252.10 939.74,211.99 C906.97,133.05 838.82,72.91 757.50,51.15 C742.17,47.05 737.61,46.16 720.50,43.95 C702.28,41.58 673.28,41.36 655.00,43.44 C577.37,52.28 509.53,92.02 462.66,156.10 C425.56,206.83 406.77,272.06 410.90,335.75 C414.34,388.74 428.73,429.49 461.84,480.00 C479.71,507.27 527.61,564.53 578.94,619.99 C615.18,659.14 681.25,723.00 685.51,723.00 C686.13,723.00 688.63,721.32 691.07,719.27 ZM 663.15 515.49 C616.31,509.51 578.22,490.38 544.40,455.84 C521.83,432.79 507.76,409.00 497.17,376.00 C489.63,352.50 486.93,319.15 490.45,293.00 C498.76,231.35 538.51,174.06 593.00,145.18 C649.64,115.16 717.33,114.34 773.92,142.99 C797.12,154.73 821.50,174.51 838.65,195.50 C843.78,201.77 854.61,218.38 859.31,227.16 C870.01,247.15 877.80,271.70 880.96,295.32 C882.50,306.87 882.23,333.27 880.45,346.07 C872.33,404.26 838.74,455.80 788.50,487.17 C766.59,500.85 743.04,509.85 716.81,514.57 C704.59,516.76 676.89,517.24 663.15,515.49 ZM 674.50 515.05 C686.26,515.84 702.95,515.34 709.50,514.01 C711.70,513.57 717.55,512.44 722.50,511.52 C727.45,510.59 733.76,508.97 736.52,507.92 C739.28,506.86 742.48,506.00 743.63,506.00 C744.78,506.00 748.74,504.42 752.43,502.50 C756.12,500.58 760.21,499.00 761.51,499.00 C762.82,499.00 764.13,498.60 764.43,498.11 C764.73,497.63 766.50,496.94 768.35,496.59 C770.21,496.25 772.49,495.11 773.43,494.07 C774.38,493.03 776.57,491.63 778.32,490.95 C785.06,488.34 798.43,479.11 806.15,471.75 C809.64,468.42 815.94,462.84 820.15,459.34 C824.42,455.80 829.24,450.67 831.07,447.74 C832.86,444.86 837.00,439.75 840.26,436.38 C843.52,433.01 846.80,429.19 847.55,427.88 C850.39,422.94 856.00,411.29 856.00,410.34 C856.00,409.79 857.09,408.32 858.43,407.07 C859.76,405.82 861.82,402.25 863.01,399.14 C864.19,396.04 865.74,392.15 866.44,390.50 C869.01,384.51 874.83,366.33 876.50,359.08 C877.44,355.00 878.58,347.57 879.02,342.58 C879.46,337.59 880.13,330.12 880.50,326.00 C881.21,318.07 878.67,284.18 877.14,281.18 C876.66,280.26 875.49,276.12 874.52,272.00 C870.65,255.40 864.45,239.70 856.69,226.89 C855.48,224.90 852.54,219.95 850.15,215.89 C847.76,211.82 844.95,207.38 843.91,206.00 C842.87,204.62 841.37,202.34 840.57,200.93 C839.78,199.52 835.17,194.32 830.32,189.39 C825.47,184.45 819.25,177.86 816.50,174.74 C813.75,171.62 811.02,169.05 810.44,169.03 C809.85,169.01 808.08,167.65 806.50,166.00 C804.92,164.35 803.27,163.00 802.83,163.00 C802.40,163.00 799.67,161.20 796.77,159.00 C793.87,156.80 790.14,154.35 788.47,153.56 C786.80,152.76 784.37,151.19 783.07,150.06 C781.76,148.93 779.88,148.00 778.89,148.00 C777.89,148.00 776.27,147.19 775.29,146.20 C773.28,144.18 750.19,134.85 742.50,132.95 C739.75,132.27 735.47,130.94 733.00,129.99 C725.57,127.15 719.10,125.90 707.00,124.95 C683.19,123.08 652.96,124.73 643.00,128.44 C640.53,129.36 634.67,130.95 629.99,131.97 C616.80,134.86 598.32,142.51 595.07,146.42 C594.35,147.29 592.98,148.00 592.03,148.00 C589.94,148.00 578.05,155.45 572.50,160.22 C570.30,162.12 565.80,165.62 562.50,168.01 C552.90,174.94 534.05,194.85 531.35,200.92 C530.71,202.34 527.65,206.65 524.53,210.50 C521.42,214.35 517.33,220.73 515.45,224.68 C513.58,228.63 511.62,232.12 511.10,232.44 C510.58,232.76 509.38,235.38 508.44,238.26 C507.49,241.14 505.88,244.69 504.86,246.15 C503.84,247.61 503.00,249.39 503.00,250.09 C503.00,251.27 501.22,257.38 495.80,274.82 C493.15,283.34 491.13,296.98 490.38,311.50 C489.66,325.38 492.28,353.66 494.72,358.41 C495.54,360.01 496.56,363.61 496.97,366.41 C497.94,372.90 499.92,380.62 501.65,384.65 C502.39,386.38 503.00,388.31 503.00,388.93 C503.00,390.31 509.60,403.56 511.99,407.00 C512.95,408.38 514.07,410.62 514.49,412.00 C514.90,413.38 515.81,415.17 516.52,416.00 C517.22,416.83 519.30,420.28 521.15,423.69 C526.15,432.93 551.39,461.63 558.68,466.37 C560.97,467.87 565.25,471.38 568.18,474.17 C573.85,479.59 584.96,487.25 590.49,489.56 C592.33,490.33 595.85,492.32 598.32,493.98 C600.78,495.64 603.42,497.00 604.20,497.00 C604.97,497.00 606.03,497.39 606.55,497.88 C607.07,498.36 610.20,499.69 613.50,500.83 C616.80,501.97 623.16,504.22 627.64,505.83 C640.74,510.53 658.12,513.95 674.50,515.05 ZM 807.51 456.59 C805.24,458.07 794.85,458.24 694.76,458.43 C634.12,458.54 583.38,458.45 582.00,458.23 C575.09,457.10 574.92,455.48 574.98,392.70 L 575.02 344.91 L 571.26 343.45 C560.71,339.37 557.00,335.16 557.00,327.27 C557.00,321.87 561.49,316.54 569.19,312.82 C572.11,311.41 582.38,306.39 592.00,301.66 C601.62,296.93 611.97,292.26 615.00,291.27 C618.03,290.28 621.61,288.69 622.97,287.74 C624.33,286.78 626.18,286.00 627.08,286.00 C627.98,286.00 630.41,284.86 632.47,283.46 C634.52,282.06 637.85,280.31 639.85,279.56 C652.05,275.01 659.26,272.03 660.42,271.06 C662.53,269.32 675.05,263.52 680.00,262.00 C682.47,261.24 685.39,260.03 686.47,259.31 C689.13,257.54 695.48,257.66 702.07,259.60 C706.99,261.04 723.60,269.24 728.47,272.63 C729.56,273.38 731.23,274.00 732.20,274.00 C733.16,274.00 740.15,277.19 747.73,281.09 C760.80,287.83 766.72,290.39 780.50,295.27 C783.80,296.44 788.97,299.06 792.00,301.09 C795.03,303.12 802.00,306.66 807.50,308.95 C814.61,311.92 818.59,314.25 821.25,317.02 C824.75,320.66 825.00,321.33 825.00,327.03 C825.00,330.38 824.49,334.11 823.87,335.32 C822.57,337.84 818.01,341.91 816.42,341.96 C815.83,341.98 814.40,343.01 813.24,344.25 C811.18,346.46 811.14,347.23 811.20,383.00 C811.28,423.17 811.06,442.59 810.49,447.97 C810.28,449.91 810.09,452.28 810.06,453.23 C810.03,454.18 808.88,455.69 807.51,456.59 ZM 807.57 454.86 C809.05,453.38 809.20,448.06 809.09,399.59 C809.02,370.10 809.22,344.96 809.53,343.73 C809.93,342.15 811.45,341.07 814.78,340.00 C821.22,337.94 824.35,333.33 823.74,326.81 C822.92,317.95 823.72,318.50 786.00,300.80 C777.95,297.02 727.24,273.63 705.39,263.63 C699.84,261.08 694.28,259.00 693.06,259.00 C691.83,259.00 678.15,264.79 662.66,271.88 C647.17,278.96 627.75,287.78 619.50,291.48 C611.25,295.18 601.58,299.56 598.00,301.22 C581.30,308.98 577.07,310.93 571.22,313.52 C564.70,316.41 559.47,321.29 558.42,325.47 C557.56,328.90 559.55,334.20 562.93,337.43 C565.04,339.45 567.25,340.37 571.16,340.85 L 576.50 341.50 L 576.74 397.50 C576.98,452.01 577.04,453.54 578.97,455.14 C580.79,456.65 590.43,456.78 693.44,456.64 C796.26,456.51 806.07,456.36 807.57,454.86 ZM 733.20 414.61 C733.49,415.69 734.08,416.51 734.93,416.96 L 734.93 416.96 C736.15,417.61 748.40,418.00 767.83,418.00 C795.14,418.00 798.86,418.19 799.39,419.58 C799.73,420.45 800.00,426.99 800.00,434.10 L 800.00 447.02 L 722.50 446.50 L 722.24 414.36 C722.12,399.72 721.93,390.91 721.59,386.07 C721.40,382.94 721.13,381.52 720.75,381.21 L 720.74 381.20 L 720.73 381.19 C720.52,381.02 719.56,380.86 717.94,380.70 C713.70,380.30 704.94,380.00 693.14,379.86 C690.93,379.84 688.89,379.81 687.00,379.78 C672.62,379.58 667.07,379.50 665.02,382.14 C663.74,383.80 663.84,386.53 664.00,390.98 C664.03,391.91 664.07,392.91 664.10,394.00 C664.24,399.77 664.28,414.06 664.18,425.75 L 664.00 447.00 L 587.00 447.00 L 587.00 418.00 L 618.93 418.00 C646.62,418.00 651.07,417.79 652.43,416.43 C654.44,414.42 654.44,411.58 652.43,409.57 C651.07,408.21 646.62,408.00 618.96,408.00 L 587.05 408.00 L 586.78 374.75 C586.62,356.46 586.72,340.25 587.00,338.72 C587.51,335.89 588.22,335.50 616.50,322.53 C618.15,321.77 622.88,319.60 627.00,317.70 C631.12,315.79 644.62,309.63 657.00,304.00 C669.38,298.37 682.07,292.47 685.22,290.88 C688.37,289.30 691.73,288.00 692.70,288.00 C694.17,288.00 726.74,302.78 753.50,315.59 C757.35,317.43 769.28,322.98 780.00,327.91 L 799.50 336.87 L 799.76 372.43 L 800.03 408.00 L 768.45 408.00 C748.59,408.00 736.15,408.38 734.93,409.04 C734.07,409.50 733.49,410.38 733.20,411.39 C732.90,412.42 732.90,413.58 733.20,414.61 ZM 606.57 445.25 C654.59,446.17 657.59,446.11 659.29,444.23 C661.95,441.29 663.20,433.52 662.03,427.19 C661.31,423.31 661.32,418.98 662.06,413.05 C662.64,408.35 662.98,399.49 662.81,393.36 C662.78,392.29 662.74,391.30 662.71,390.37 C662.53,385.55 662.42,382.61 663.80,380.81 C665.98,377.97 671.89,377.99 687.11,378.05 C688.96,378.06 690.96,378.07 693.10,378.07 C716.80,378.11 720.15,378.31 721.94,379.81 C723.86,381.41 723.97,382.72 724.10,405.00 C724.17,417.92 724.17,431.37 724.10,434.87 C724.02,438.38 724.44,441.82 725.03,442.53 C727.62,445.66 735.54,446.23 766.02,445.48 C791.03,444.87 796.17,444.50 797.23,443.22 C798.04,442.24 798.50,438.52 798.50,432.87 C798.50,425.03 798.25,423.80 796.22,421.78 C793.97,419.52 793.63,419.50 764.24,419.19 C731.73,418.85 731.00,418.72 731.00,412.97 C731.00,408.22 733.00,407.57 750.40,406.65 C773.10,405.45 779.50,405.39 787.69,406.31 C794.20,407.03 795.08,406.92 796.92,405.08 C798.89,403.11 798.94,402.07 798.67,371.89 L 798.38 340.72 L 795.57 338.31 C791.51,334.82 788.58,335.55 788.20,340.14 C787.75,345.52 785.35,347.13 777.14,347.55 C771.29,347.85 769.74,347.58 767.58,345.88 C764.34,343.34 764.30,340.61 767.45,337.45 C769.56,335.35 770.84,335.00 776.40,335.00 C779.96,335.00 783.12,334.62 783.41,334.15 C784.11,333.01 780.11,329.42 777.15,328.51 C775.85,328.12 773.20,326.72 771.26,325.40 C769.31,324.08 766.77,323.00 765.61,323.00 C764.45,323.00 759.22,320.92 754.00,318.38 C748.78,315.84 742.25,312.72 739.50,311.46 C736.75,310.19 730.59,307.32 725.81,305.08 C721.03,302.84 716.70,301.00 716.19,301.00 C714.29,301.00 706.31,297.00 702.07,293.93 C697.17,290.38 691.59,289.28 688.32,291.21 C677.06,297.88 672.68,300.03 667.66,301.34 C664.44,302.17 661.07,303.53 660.16,304.35 C659.25,305.17 656.03,306.81 653.00,307.99 C649.97,309.17 642.33,312.73 636.00,315.90 C629.67,319.07 623.17,321.99 621.54,322.40 C616.23,323.73 602.00,331.02 602.00,332.41 C602.00,333.89 604.98,334.96 609.12,334.99 C614.41,335.01 618.14,339.88 616.38,344.46 C615.45,346.88 610.27,349.23 607.70,348.38 C606.49,347.98 604.19,347.75 602.59,347.86 C598.87,348.11 595.00,344.59 595.00,340.95 C595.00,336.76 592.64,335.40 590.09,338.13 C588.07,340.30 588.02,341.16 588.28,372.15 C588.45,391.76 588.94,404.34 589.56,404.96 C590.17,405.57 601.37,406.03 618.53,406.14 C633.91,406.24 647.95,406.72 649.72,407.20 C655.66,408.82 657.87,414.73 653.59,417.54 C651.54,418.87 646.51,419.16 621.08,419.40 C604.53,419.55 590.71,419.96 590.37,420.30 C588.06,422.61 587.19,442.08 589.32,443.85 C590.12,444.51 596.94,445.07 606.57,445.25 ZM 803.55 272.55 C802.20,273.90 800.06,274.99 798.80,274.97 C796.55,274.95 788.85,271.41 784.66,268.47 C781.77,266.45 776.75,266.63 773.88,268.86 C769.60,272.19 765.17,274.00 761.30,273.98 C754.83,273.96 754.62,273.53 755.42,261.66 C756.23,249.54 755.91,248.55 749.22,242.49 C745.26,238.91 744.69,237.86 744.25,233.26 C743.65,227.02 744.25,226.62 756.48,225.11 C760.87,224.57 764.60,223.70 764.77,223.18 C764.95,222.66 766.69,219.60 768.64,216.37 C770.60,213.14 772.59,209.51 773.06,208.30 C774.32,205.05 778.30,202.79 781.40,203.56 C784.15,204.25 788.91,210.45 791.56,216.79 C793.62,221.74 795.86,224.00 798.67,224.00 C802.73,224.00 812.87,227.23 814.98,229.20 C817.69,231.72 817.53,233.60 814.25,237.55 C812.74,239.37 809.92,242.76 808.00,245.08 C803.45,250.55 803.11,252.13 804.68,260.50 C806.40,269.67 806.40,269.69 803.55,272.55 ZM 591.10 273.83 L 590.82 273.92 C588.84,274.61 587.90,274.93 587.00,274.84 C586.16,274.75 585.35,274.30 583.75,273.43 C581.39,272.15 581.00,271.31 581.00,267.54 C581.00,265.13 581.51,260.93 582.14,258.21 C582.77,255.49 583.01,252.19 582.68,250.88 C582.35,249.57 579.14,245.52 575.54,241.87 C568.37,234.60 567.64,232.27 571.36,228.55 C573.20,226.71 575.25,226.04 580.61,225.54 C590.81,224.57 591.40,224.15 595.92,214.54 C599.22,207.53 600.57,205.69 603.41,204.34 C606.64,202.80 607.05,202.80 609.42,204.36 C612.64,206.47 614.61,209.47 617.53,216.74 C620.13,223.20 622.47,224.96 628.50,224.99 C634.63,225.02 639.85,226.84 641.63,229.56 C643.85,232.95 642.24,236.52 635.29,243.59 L 629.83 249.13 L 630.54 260.96 C631.21,272.26 631.15,272.85 629.19,273.90 C625.84,275.69 623.29,275.20 616.31,271.44 C608.23,267.07 603.50,266.75 598.23,270.21 C596.18,271.56 592.97,273.19 591.10,273.83 ZM 682.44 247.15 C674.61,252.43 669.83,251.79 668.06,245.22 C667.30,242.38 667.43,240.44 668.61,237.01 C671.08,229.85 669.87,225.28 663.98,219.48 C658.21,213.80 656.26,209.27 658.09,205.80 C659.77,202.60 660.46,202.29 667.61,201.53 C674.46,200.79 680.04,197.85 680.96,194.48 C681.80,191.39 689.01,181.07 691.11,179.94 C694.36,178.20 697.03,180.51 702.15,189.50 C703.09,191.15 704.36,193.59 704.97,194.92 C706.68,198.64 708.89,199.80 716.80,201.09 C730.76,203.38 732.59,208.79 722.78,218.72 L 717.50 224.07 L 717.50 235.88 C717.50,248.68 716.71,251.00 712.36,251.00 C711.04,251.00 708.12,249.84 705.87,248.42 C696.21,242.32 690.08,241.99 682.44,247.15 ZM 771.00 268.45 L 779.82 263.89 L 788.89 268.45 C804.80,276.43 805.79,275.10 801.28,251.75 C800.82,249.37 801.69,248.11 807.88,242.19 C818.26,232.25 817.53,229.14 804.33,227.07 C800.02,226.40 795.54,225.62 794.36,225.34 C792.80,224.97 791.06,222.28 787.94,215.36 C781.33,200.74 779.18,200.69 772.00,215.00 C769.31,220.36 766.45,225.00 765.65,225.30 C764.85,225.61 760.44,226.40 755.85,227.06 C751.26,227.72 746.94,228.70 746.25,229.25 C743.32,231.58 744.93,235.08 752.00,241.71 C759.83,249.05 760.15,250.12 757.50,260.00 C755.03,269.21 755.84,273.00 760.29,273.00 C761.33,273.00 766.15,270.95 771.00,268.45 ZM 597.02 268.49 L 606.00 263.98 L 614.98 268.49 C624.37,273.21 626.81,273.79 628.80,271.80 C630.41,270.19 630.31,267.07 628.37,257.26 L 626.73 249.02 L 633.87 242.42 C639.52,237.18 641.00,235.22 641.00,232.94 C641.00,229.30 639.50,228.53 629.50,226.96 C625.10,226.28 620.74,225.33 619.81,224.86 C618.89,224.38 616.13,219.79 613.69,214.64 C611.25,209.49 608.75,204.96 608.12,204.57 C605.40,202.89 603.02,205.42 598.49,214.79 C595.91,220.13 593.35,224.78 592.80,225.12 C592.25,225.46 587.78,226.29 582.88,226.96 C568.56,228.92 567.82,231.25 578.22,241.72 L 585.44 248.99 L 583.65 259.56 C581.05,274.97 582.36,275.85 597.02,268.49 ZM 684.17 244.25 L 693.08 239.50 L 701.93 244.25 C711.09,249.17 713.75,249.85 715.80,247.80 C717.38,246.22 717.31,242.98 715.52,234.50 C714.70,230.65 714.03,226.89 714.02,226.14 C714.01,225.40 717.15,221.54 721.00,217.57 C724.85,213.60 728.00,209.66 728.00,208.83 C728.00,205.97 724.49,204.19 716.50,202.99 C712.10,202.33 707.66,201.35 706.64,200.80 C705.62,200.26 703.04,196.09 700.91,191.54 C698.77,186.99 696.34,182.69 695.49,181.99 C692.52,179.52 689.61,182.26 685.02,191.85 C680.25,201.81 681.34,201.07 668.54,203.04 C660.56,204.26 659.00,205.21 659.00,208.85 C659.00,210.72 660.88,213.34 665.70,218.20 L 672.40 224.95 L 671.11 232.73 C670.40,237.00 669.59,241.66 669.32,243.09 C668.77,245.91 671.06,249.00 673.71,249.00 C674.57,249.00 679.28,246.86 684.17,244.25 ZM 674.00 388.96 L 693.25 389.23 L 712.50 389.50 L 712.50 446.50 L 693.25 446.77 L 674.00 447.04 ZM 569.11 330.63 C566.87,327.93 568.32,325.59 574.00,322.75 C577.03,321.24 590.30,315.12 603.50,309.15 C653.89,286.35 683.64,272.78 687.28,270.92 C689.36,269.87 691.89,269.00 692.91,269.00 C694.40,269.00 713.10,277.37 746.50,292.98 C748.70,294.01 763.10,300.68 778.50,307.80 C811.58,323.10 813.80,324.06 814.39,325.63 C814.46,325.81 814.50,326.01 814.57,326.23 C815.33,328.62 813.36,331.00 810.62,331.00 C809.45,331.00 797.47,325.78 784.00,319.40 C770.52,313.01 756.12,306.31 752.00,304.50 C747.88,302.69 738.88,298.52 732.00,295.24 C704.01,281.88 695.27,278.00 693.13,278.00 C691.13,278.00 685.91,280.26 658.00,293.26 C653.88,295.18 642.40,300.45 632.50,304.97 C622.60,309.50 609.33,315.58 603.00,318.50 C596.67,321.41 587.90,325.45 583.50,327.47 C573.58,332.03 570.78,332.65 569.11,330.63 ZM 681.83 445.28 C697.81,446.96 707.70,445.54 709.52,441.29 C709.94,440.30 710.43,429.30 710.60,416.83 C710.84,398.85 710.63,393.94 709.57,393.06 C708.35,392.05 697.21,390.26 694.25,390.60 C693.56,390.68 689.85,390.81 686.00,390.88 C681.94,390.95 679.39,390.89 677.80,392.09 C675.10,394.14 675.16,399.84 675.34,416.04 C675.35,416.79 675.36,417.57 675.37,418.37 C675.56,435.48 675.97,442.26 676.89,443.37 C677.58,444.20 679.81,445.06 681.83,445.28 ZM 594.69 252.44 L 595.30 245.88 L 590.96 241.46 C588.58,239.03 586.92,236.75 587.28,236.39 C587.64,236.03 590.52,235.22 593.70,234.58 L 599.46 233.43 L 602.44 227.21 C604.08,223.80 605.70,221.00 606.03,221.00 C606.36,221.00 607.92,223.70 609.50,227.00 C611.94,232.11 612.90,233.16 615.94,234.00 C617.90,234.54 620.40,235.00 621.50,235.01 C626.07,235.06 626.05,236.54 621.41,241.05 L 616.83 245.50 L 617.48 252.24 C618.07,258.49 617.99,258.92 616.31,258.18 C615.31,257.74 612.70,256.56 610.50,255.57 C609.02,254.90 608.06,254.46 607.07,254.35 C605.25,254.13 603.30,254.98 597.79,257.38 L 597.79 257.38 L 594.08 259.00 ZM 768.62 252.43 L 769.29 245.86 L 764.51 241.01 L 759.73 236.15 L 765.72 234.98 C769.01,234.33 772.17,233.50 772.72,233.15 C773.28,232.79 774.93,230.14 776.39,227.25 C777.84,224.36 779.47,222.00 780.00,222.00 C780.54,222.00 782.31,224.66 783.95,227.90 C786.85,233.64 787.06,233.82 791.76,234.47 C799.83,235.58 800.13,236.26 794.92,241.71 L 790.34 246.50 L 791.23 252.36 C791.72,255.58 791.92,258.42 791.66,258.67 C791.41,258.93 788.92,257.98 786.13,256.57 C779.90,253.41 779.60,253.41 773.79,256.50 C771.20,257.88 768.83,259.00 768.52,259.00 C768.20,259.00 768.25,256.04 768.62,252.43 ZM 573.00 327.54 C573.00,329.54 574.83,329.37 579.31,326.98 C581.38,325.86 586.06,323.83 589.70,322.46 C593.34,321.09 599.28,318.44 602.91,316.58 C606.53,314.71 612.42,311.98 616.00,310.51 C619.58,309.03 625.20,306.54 628.50,304.96 C631.80,303.38 641.03,299.09 649.00,295.44 C656.97,291.79 664.17,288.24 665.00,287.55 C665.83,286.87 671.45,284.39 677.50,282.05 C683.55,279.71 689.07,277.34 689.76,276.77 C691.50,275.34 698.53,277.34 708.86,282.20 C717.80,286.40 721.82,286.68 718.39,282.86 C716.47,280.74 705.31,275.00 703.10,275.00 C702.44,275.00 700.14,273.99 697.99,272.75 C694.21,270.57 693.97,270.56 690.79,272.22 C688.98,273.16 686.15,274.23 684.50,274.60 C680.58,275.47 671.15,279.83 668.12,282.16 C666.80,283.17 665.00,283.99 664.12,283.98 C663.23,283.97 659.35,285.52 655.50,287.43 C651.65,289.34 646.12,291.84 643.22,292.99 C640.32,294.14 630.65,298.66 621.73,303.04 C612.82,307.42 604.82,311.00 603.96,311.00 C603.10,311.00 597.92,313.34 592.45,316.20 C586.98,319.06 580.36,322.45 577.75,323.74 C575.14,325.02 573.00,326.74 573.00,327.54 ZM 681.54 228.49 L 682.24 221.98 L 678.03 217.41 C675.71,214.90 674.12,212.54 674.48,212.17 C674.85,211.80 677.70,211.05 680.82,210.50 C686.33,209.53 686.59,209.34 689.31,204.25 C690.86,201.36 692.48,199.00 692.90,199.00 C693.33,199.00 694.90,201.23 696.38,203.96 C699.12,209.00 702.59,210.98 708.69,210.99 C712.45,211.00 712.24,212.79 707.94,217.45 L 703.80 221.94 L 704.50 227.97 C705.29,234.82 704.97,235.05 699.00,232.00 C693.88,229.39 691.36,229.48 686.50,232.47 C684.30,233.83 682.13,234.95 681.67,234.97 C681.21,234.99 681.15,232.07 681.54,228.49 ZM 598.04 252.07 C599.29,254.41 600.34,254.48 603.46,252.43 C605.63,251.01 606.13,251.02 609.01,252.51 C613.20,254.67 614.76,253.90 615.50,249.30 C615.84,247.21 616.77,244.31 617.56,242.85 C619.88,238.56 619.34,237.07 614.72,235.09 C612.14,233.99 609.96,232.21 609.24,230.63 C607.63,227.10 605.81,227.32 602.16,231.47 C600.49,233.37 597.99,235.22 596.60,235.56 C592.06,236.70 591.45,238.59 594.38,242.43 C595.82,244.32 597.00,246.83 597.00,248.00 C597.00,249.17 597.47,251.00 598.04,252.07 ZM 783.71 253.28 C783.85,253.42 783.97,253.54 784.09,253.66 C784.88,254.47 785.27,254.86 785.66,254.85 C786.08,254.85 786.49,254.37 787.43,253.43 C788.55,252.30 788.83,250.80 788.41,248.16 C787.94,245.22 788.24,244.09 789.91,242.58 C792.92,239.85 792.57,237.10 789.06,235.87 C787.44,235.31 784.95,233.31 783.51,231.42 C780.33,227.25 778.52,227.10 776.57,230.86 C775.76,232.43 773.74,234.28 772.08,234.97 C767.17,237.00 766.51,238.46 768.79,242.22 C769.89,244.02 771.09,246.96 771.47,248.75 C772.14,251.92 772.28,251.99 777.08,251.78 C780.61,251.63 782.48,252.05 783.71,253.28 ZM 685.46 227.50 C685.62,228.06 689.23,228.50 693.61,228.50 L 701.47 228.50 L 702.04 224.99 C702.35,223.05 703.44,220.07 704.45,218.35 C706.58,214.75 705.97,212.00 703.03,212.00 C701.92,212.00 699.26,210.43 697.13,208.50 C695.00,206.57 692.96,205.00 692.60,205.00 C692.24,205.00 690.56,206.57 688.87,208.50 C687.18,210.43 685.25,212.00 684.59,212.00 C683.92,212.00 682.55,212.61 681.52,213.36 C679.72,214.68 679.73,214.81 681.77,217.67 C682.92,219.29 684.16,221.94 684.52,223.56 C684.87,225.18 685.30,226.95 685.46,227.50 ZM 801.50 325.58 C811.10,330.08 814.96,327.55 805.75,322.79 C802.86,321.30 799.21,319.61 797.64,319.02 C796.06,318.44 792.16,316.43 788.97,314.56 C785.77,312.69 780.47,310.47 777.19,309.63 C773.91,308.79 769.06,306.73 766.42,305.05 C763.77,303.37 761.20,302.00 760.70,302.00 C760.21,302.00 757.26,300.46 754.15,298.58 C747.94,294.82 737.46,291.20 736.26,292.41 C735.15,293.52 740.74,298.00 744.09,298.67 C745.66,298.98 747.47,299.86 748.10,300.62 C748.73,301.38 749.66,302.00 750.16,302.00 C750.67,302.00 753.91,303.32 757.36,304.94 C760.82,306.55 764.91,308.19 766.45,308.58 C768.00,308.96 772.01,310.93 775.38,312.94 C778.75,314.94 784.88,318.08 789.00,319.91 C793.12,321.74 798.75,324.29 801.50,325.58 ZM 647.93 370.54 C645.18,371.96 637.03,372.40 634.00,371.29 C631.14,370.25 628.00,366.64 628.00,364.40 C628.00,359.45 634.28,357.08 643.28,358.62 C647.51,359.35 648.71,360.04 650.22,362.62 C652.39,366.35 651.75,368.56 647.93,370.54 ZM 680.87 346.89 C679.13,347.50 675.37,348.00 672.53,348.00 C668.41,348.00 666.90,347.53 665.17,345.69 C660.08,340.26 664.52,335.00 674.18,335.00 C681.11,335.00 686.00,337.11 686.00,340.09 C686.00,343.40 684.25,345.72 680.87,346.89 ZM 615.16 369.30 C614.25,370.09 612.38,370.91 611.00,371.12 C606.92,371.74 598.65,370.95 597.28,369.81 C595.45,368.30 595.70,362.50 597.65,360.87 C600.07,358.87 609.16,357.29 612.82,358.23 C618.07,359.59 619.35,365.65 615.16,369.30 ZM 751.37 393.93 C748.31,396.33 739.09,396.79 735.10,394.74 C729.73,391.96 730.87,385.31 737.00,383.72 C748.50,380.72 758.82,388.06 751.37,393.93 ZM 716.67 369.41 C711.66,372.55 699.98,371.57 697.63,367.80 C695.77,364.82 698.04,360.67 702.29,359.27 C710.24,356.66 721.15,360.81 719.55,365.84 C719.17,367.06 717.87,368.67 716.67,369.41 ZM 649.75 392.49 C647.85,394.69 646.42,395.17 640.50,395.64 C632.73,396.24 630.54,395.31 629.49,390.94 C629.07,389.18 629.49,387.61 630.85,385.94 C632.67,383.69 633.40,383.53 640.61,383.78 C651.50,384.16 654.49,387.01 649.75,392.49 ZM 785.17 369.34 C784.12,370.30 780.86,371.22 777.42,371.54 C769.67,372.25 766.00,370.19 766.00,365.13 C766.00,360.32 768.17,359.07 776.60,359.03 C782.23,359.01 784.03,359.38 785.35,360.83 C787.53,363.24 787.45,367.28 785.17,369.34 ZM 750.80 345.69 C750.09,346.26 746.80,346.98 743.50,347.30 C734.43,348.17 729.98,344.99 732.12,339.20 C733.14,336.44 736.75,335.00 742.61,335.00 C752.26,335.00 756.82,340.95 750.80,345.69 ZM 649.93 344.37 C648.06,346.74 647.20,347.00 641.15,347.00 C633.15,347.00 630.00,345.31 630.00,341.00 C630.00,336.80 633.17,335.00 640.59,335.00 C645.29,335.00 647.35,335.49 649.37,337.07 C652.54,339.57 652.65,340.91 649.93,344.37 ZM 614.90 393.60 C611.73,396.46 599.75,396.43 597.07,393.56 C594.91,391.23 595.24,386.88 597.72,384.82 C599.90,383.01 612.99,383.69 615.25,385.73 C617.61,387.86 617.46,391.28 614.90,393.60 ZM 784.07 368.96 C785.30,368.30 786.00,366.87 786.00,365.00 C786.00,361.22 783.69,360.00 776.50,360.00 C773.40,360.00 770.00,360.47 768.93,361.04 C766.45,362.37 766.33,367.51 768.75,368.92 C771.04,370.26 781.59,370.29 784.07,368.96 ZM 648.07 368.96 C650.69,367.56 650.53,363.49 647.78,361.56 C645.07,359.66 635.06,359.46 632.83,361.25 C630.44,363.18 630.01,365.56 631.63,367.89 C632.88,369.67 634.13,370.00 639.62,370.00 C643.20,370.00 647.00,369.53 648.07,368.96 ZM 717.04 367.96 C717.55,367.16 717.97,365.83 717.97,365.00 C717.97,361.56 716.14,360.57 709.05,360.17 C704.37,359.91 701.48,360.19 700.49,361.01 C698.44,362.71 698.60,367.65 700.75,368.98 C703.33,370.56 715.90,369.78 717.04,367.96 ZM 614.17 368.35 C618.50,364.43 614.60,360.00 606.84,360.00 C599.71,360.00 597.00,361.36 597.00,364.93 C597.00,368.81 599.09,369.93 606.42,369.97 C610.56,369.99 612.89,369.50 614.17,368.35 ZM 615.12 391.63 C615.91,389.90 615.89,388.67 615.07,387.13 C614.05,385.23 613.06,385.00 606.00,385.00 C599.18,385.00 597.93,385.27 597.04,386.93 C594.36,391.93 597.16,394.00 606.59,394.00 C613.46,394.00 614.13,393.82 615.12,391.63 ZM 682.17 344.35 C684.29,342.43 684.55,339.69 682.75,338.24 C680.87,336.72 674.02,335.98 669.50,336.80 C666.08,337.42 665.45,337.93 665.18,340.32 C664.66,344.82 666.45,346.00 673.79,346.00 C678.48,346.00 680.86,345.53 682.17,344.35 ZM 648.25 344.61 C650.31,343.04 650.54,339.70 648.70,338.16 C647.23,336.95 633.86,336.35 632.13,337.42 C630.63,338.34 630.68,343.28 632.20,344.80 C633.85,346.45 646.02,346.30 648.25,344.61 ZM 614.17 344.35 C615.18,343.43 616.00,341.95 616.00,341.05 C616.00,337.90 613.75,337.00 605.84,337.00 C599.09,337.00 597.93,337.26 597.00,339.00 C595.83,341.18 596.98,344.42 599.24,345.33 C602.41,346.61 612.40,345.95 614.17,344.35 ZM 750.07 344.96 C752.23,343.81 752.64,340.04 750.80,338.20 C750.07,337.47 746.56,337.00 741.91,337.00 C735.81,337.00 734.09,337.33 733.61,338.58 C732.66,341.06 732.89,343.49 734.20,344.80 C735.68,346.28 747.39,346.40 750.07,344.96 ZM 648.80 392.80 C649.46,392.14 650.00,390.65 650.00,389.50 C650.00,385.94 648.01,385.00 640.50,385.00 C632.99,385.00 631.00,385.94 631.00,389.50 C631.00,390.65 631.54,392.14 632.20,392.80 C633.79,394.39 647.21,394.39 648.80,392.80 ZM 750.80 392.80 C751.46,392.14 752.00,390.65 752.00,389.50 C752.00,385.94 750.01,385.00 742.50,385.00 C734.99,385.00 733.00,385.94 733.00,389.50 C733.00,390.65 733.54,392.14 734.20,392.80 C735.79,394.39 749.21,394.39 750.80,392.80 ZM 784.95 344.56 C785.61,343.77 786.00,341.86 785.82,340.31 C785.50,337.53 785.43,337.50 777.66,337.21 C772.73,337.02 769.29,337.35 768.41,338.08 C766.68,339.51 766.57,343.17 768.20,344.80 C769.98,346.58 783.43,346.39 784.95,344.56 Z" fill="rgb(251,247,193)"/>
    </g>
  </g>
</svg>