<?xml version="1.0" encoding="utf-8"?>
<svg xmlns="http://www.w3.org/2000/svg" viewBox="0 0 500 500">
  <g transform="matrix(0.047509, 0, 0, -0.047509, -73.913727, 408.961395)" fill="#E6BB03" fill-rule="evenodd" stroke="none" style="">
    <ellipse style="stroke: rgb(0, 0, 0); fill: rgb(255, 255, 255);" cx="6835.84" cy="-4467.1" rx="2791.03" ry="2696.7" transform="matrix(1, 0, 0, -1, 0, 0)"/>
  </g>
  <g transform="matrix(0.063678, 0, 0, -0.063678, -8563.84375, -3814.229736)" fill="#E6B901" fill-rule="evenodd" stroke="none" style="transform-origin: 8945.31px 4037px;">
    <path fill-rule="evenodd" d="M6820 7263 c-238 -9 -582 -68 -795 -138 -251 -83 -517 -216 -715 -358 -312 -223 -592 -521 -783 -832 -64 -105 -186 -355 -231 -476 -145 -392 -205 -870 -159 -1274 50 -443 182 -819 416 -1190 145 -230 212 -322 406 -558 58 -71 133 -161 166 -202 310 -376 833 -946 1200 -1306 243 -239 503 -479 539 -499 30 -16 34 -13 271 205 397 365 1028 1025 1375 1439 524 623 702 872 858 1196 188 390 282 788 282 1196 0 564 -162 1105 -469 1565 -300 450 -747 820 -1231 1019 -352 144 -779 225 -1130 213z m385 -833 c106 -18 362 -88 405 -110 8 -5 67 -33 131 -63 211 -99 417 -251 586 -434 124 -134 154 -174 238 -314 206 -344 294 -655 295 -1039 2 -429 -141 -853 -398 -1186 -200 -259 -439 -455 -722 -593 -219 -106 -350 -146 -585 -181 -372 -55 -793 14 -1135 186 -841 423 -1277 1354 -1054 2252 14 57 32 115 40 130 8 15 14 34 14 42 0 26 38 117 109 259 181 361 502 680 871 866 207 104 497 186 740 209 97 9 349 -4 465 -24z"/>
    <path fill-rule="evenodd" d="M6599 5613 c-145 -148 -455 -462 -687 -699 -446 -457 -451 -463 -400 -498 44 -31 63 -21 164 84 54 55 101 100 105 100 5 0 9 -286 9 -635 0 -622 0 -635 20 -655 19 -19 33 -20 405 -20 382 0 384 0 405 22 20 21 20 32 20 515 l0 493 250 0 249 0 3 -501 c3 -482 4 -501 22 -515 16 -11 88 -14 406 -14 381 0 387 0 406 21 18 20 19 47 21 643 1 341 2 628 2 636 1 8 47 -31 104 -88 77 -76 109 -102 128 -102 31 0 59 28 59 60 0 25 -27 55 -460 495 -146 149 -382 389 -524 535 -370 379 -381 390 -414 390 -23 0 -72 -45 -293 -267z m1124 -718 l146 -150 2 -150 c1 -82 2 -163 2 -180 0 -16 0 -249 -1 -517 l-2 -488 -305 0 -305 0 0 497 c0 448 -2 498 -17 515 -15 17 -39 18 -351 18 -298 0 -337 -2 -354 -17 -17 -15 -18 -44 -18 -515 l0 -498 -305 0 -305 0 0 663 1 662 76 80 c42 44 239 247 437 450 199 204 385 394 414 424 l52 54 343 -349 c189 -192 409 -416 490 -499z"/>
  </g>
</svg>