<svg xmlns="http://www.w3.org/2000/svg" viewBox="0 0 64 80">
  <defs>
    <filter id="s" x="-20%" y="-20%" width="140%" height="140%">
      <feGaussianBlur in="SourceAlpha" stdDeviation="1.2"/>
      <feOffset dy="1.5"/>
      <feComponentTransfer><feFuncA type="linear" slope="0.35"/></feComponentTransfer>
      <feMerge><feMergeNode/><feMergeNode in="SourceGraphic"/></feMerge>
    </filter>
  </defs>
  <g filter="url(#s)">
    <path d="M32 2 C17 2 6 13 6 28 C6 42 18 56 32 76 C46 56 58 42 58 28 C58 13 47 2 32 2 Z" fill="#00838F"/>
    <circle cx="32" cy="28" r="17" fill="#FFFFFF"/>
  </g>
  <g transform="translate(32 28)" fill="#00838F" stroke="#00838F" stroke-width="2"
     stroke-linecap="round" stroke-linejoin="round">
    
        <path d="M-9 -7 C-9 -4 -7 1 -2 6 C3 11 8 11 9 9 L9 5 L4 3 L1 6 C-2 4 -4 2 -6 -1 L-3 -4 L-5 -9 L-9 -9 Z" fill="#00838F" stroke="none"/>
    
  </g>
</svg>
